<svg width="1280" height="453" viewBox="0 0 1280 453" fill="none" xmlns="http://www.w3.org/2000/svg">
<rect width="1280" height="320" transform="translate(0 67)" fill="#0920B2"/>
<path d="M1282 386.5C1198.74 391.031 1193.5 394.716 1187 453C1180.53 394.716 1175.26 391.05 1092 386.5C1175.26 381.969 1180.5 378.284 1187 320C1193.47 378.284 1198.74 381.95 1282 386.5Z" fill="white"/>
<path d="M1014.67 386.5C969.092 389.736 966.225 392.369 962.667 434C959.124 392.369 956.242 389.75 910.667 386.5C956.242 383.263 959.109 380.631 962.667 339C966.21 380.631 969.092 383.25 1014.67 386.5Z" fill="white"/>
<path d="M833.333 386.5C787.758 389.736 784.891 392.369 781.333 434C777.79 392.369 774.908 389.75 729.333 386.5C774.908 383.263 777.775 380.631 781.333 339C784.876 380.631 787.758 383.25 833.333 386.5Z" fill="white"/>
<path d="M652 386.5C606.425 389.736 603.558 392.369 600 434C596.457 392.369 593.575 389.75 548 386.5C593.575 383.263 596.442 380.631 600 339C603.543 380.631 606.425 383.25 652 386.5Z" fill="white"/>
<path d="M470.667 386.5C424.653 389.736 421.759 392.369 418.167 434C414.59 392.369 411.681 389.75 365.667 386.5C411.681 383.263 414.575 380.631 418.167 339C421.744 380.631 424.653 383.25 470.667 386.5Z" fill="white"/>
<path d="M288.333 386.5C242.758 389.736 239.891 392.369 236.333 434C232.79 392.369 229.908 389.75 184.333 386.5C229.908 383.263 232.775 380.631 236.333 339C239.876 380.631 242.758 383.25 288.333 386.5Z" fill="white"/>
<path d="M107 386.5C61.4247 389.736 58.5578 392.369 55 434C51.4569 392.369 48.5753 389.75 3 386.5C48.5753 383.263 51.4422 380.631 55 339C58.5431 380.631 61.4247 383.25 107 386.5Z" fill="white"/>
<path d="M-1 66.5C82.2627 71.0311 87.5001 74.7161 94 133C100.473 74.7161 105.737 71.0499 189 66.5C105.737 61.9689 100.5 58.2839 94 0C87.527 58.2839 82.2627 61.9501 -1 66.5Z" fill="white"/>
<path d="M266.333 66.5C311.908 69.7365 314.775 72.3687 318.333 114C321.876 72.3687 324.758 69.7499 370.333 66.5C324.758 63.2635 321.891 60.6313 318.333 19C314.79 60.6313 311.908 63.2501 266.333 66.5Z" fill="white"/>
<path d="M447.667 66.5C493.242 69.7365 496.109 72.3687 499.667 114C503.21 72.3687 506.092 69.7499 551.667 66.5C506.092 63.2635 503.225 60.6313 499.667 19C496.124 60.6313 493.242 63.2501 447.667 66.5Z" fill="white"/>
<path d="M629 66.5C674.575 69.7365 677.442 72.3687 681 114C684.543 72.3687 687.425 69.7499 733 66.5C687.425 63.2635 684.558 60.6313 681 19C677.457 60.6313 674.575 63.2501 629 66.5Z" fill="white"/>
<path d="M810.333 66.5C856.347 69.7365 859.241 72.3687 862.833 114C866.41 72.3687 869.319 69.7499 915.333 66.5C869.319 63.2635 866.425 60.6313 862.833 19C859.256 60.6313 856.347 63.2501 810.333 66.5Z" fill="white"/>
<path d="M992.667 66.5C1038.24 69.7365 1041.11 72.3687 1044.67 114C1048.21 72.3687 1051.09 69.7499 1096.67 66.5C1051.09 63.2635 1048.22 60.6313 1044.67 19C1041.12 60.6313 1038.24 63.2501 992.667 66.5Z" fill="white"/>
<path d="M1174 66.5C1219.58 69.7365 1222.44 72.3687 1226 114C1229.54 72.3687 1232.42 69.7499 1278 66.5C1232.42 63.2635 1229.56 60.6313 1226 19C1222.46 60.6313 1219.58 63.2501 1174 66.5Z" fill="white"/>
</svg>
