<svg width="320" height="452" viewBox="0 0 320 452" fill="none" xmlns="http://www.w3.org/2000/svg">
<g clip-path="url(#clip0_918_3457)">
<rect width="320" height="452" fill="url(#paint0_linear_918_3457)"/>
<path d="M1 -0.5C43.5078 3.3838 46.1817 6.54241 49.5 56.5C52.8046 6.54241 55.4922 3.39992 98 -0.5C55.4922 -4.3838 52.8183 -7.54241 49.5 -57.5C46.1954 -7.54241 43.5078 -4.39992 1 -0.5Z" fill="white"/>
<path d="M110 -0.499999C134.541 1.30563 136.084 2.7741 138 26C139.908 2.7741 141.459 1.31312 166 -0.499999C141.459 -2.30563 139.916 -3.7741 138 -27C136.092 -3.7741 134.541 -2.31312 110 -0.499999Z" fill="white"/>
<path d="M178 -0.499999C202.541 1.30563 204.084 2.7741 206 26C207.908 2.7741 209.459 1.31312 234 -0.499999C209.459 -2.30563 207.916 -3.7741 206 -27C204.092 -3.7741 202.541 -2.31312 178 -0.499999Z" fill="white"/>
<path d="M246 -0.499999C270.541 1.30563 272.084 2.7741 274 26C275.908 2.7741 277.459 1.31312 302 -0.499999C277.459 -2.30563 275.916 -3.7741 274 -27C272.092 -3.7741 270.541 -2.31312 246 -0.499999Z" fill="white"/>
</g>
<defs>
<linearGradient id="paint0_linear_918_3457" x1="160" y1="0" x2="160" y2="452" gradientUnits="userSpaceOnUse">
<stop stop-color="#E979E5"/>
<stop offset="0.764423" stop-color="white"/>
</linearGradient>
<clipPath id="clip0_918_3457">
<rect width="320" height="452" fill="white"/>
</clipPath>
</defs>
</svg>
