<svg width="320" height="129" viewBox="0 0 320 129" fill="none" xmlns="http://www.w3.org/2000/svg">
<g clip-path="url(#clip0_908_3258)">
<rect width="320" height="129" fill="#0920B2"/>
<path d="M9 -0.500001C35.2935 1.37376 36.9474 2.89765 39 27C41.0441 2.89765 42.7065 1.38154 69 -0.500001C42.7065 -2.37376 41.0526 -3.89766 39 -28C36.9559 -3.89766 35.2935 -2.38154 9 -0.500001Z" fill="white"/>
<path d="M113.667 -0.5C129.443 0.624258 130.435 1.53859 131.667 16C132.893 1.53859 133.89 0.628923 149.667 -0.5C133.89 -1.62426 132.898 -2.53859 131.667 -17C130.44 -2.53859 129.443 -1.62892 113.667 -0.5Z" fill="white"/>
<path d="M194.333 -0.5C210.11 0.624258 211.102 1.53859 212.333 16C213.56 1.53859 214.557 0.628923 230.333 -0.5C214.557 -1.62426 213.565 -2.53859 212.333 -17C211.107 -2.53859 210.11 -1.62892 194.333 -0.5Z" fill="white"/>
<path d="M275 -0.5C290.776 0.624258 291.768 1.53859 293 16C294.226 1.53859 295.224 0.628923 311 -0.5C295.224 -1.62426 294.232 -2.53859 293 -17C291.774 -2.53859 290.776 -1.62892 275 -0.5Z" fill="white"/>
<path d="M311 129.5C284.707 131.374 283.053 132.898 281 157C278.956 132.898 277.293 131.382 251 129.5C277.293 127.626 278.947 126.102 281 102C283.044 126.102 284.707 127.618 311 129.5Z" fill="white"/>
<path d="M206.333 129.5C190.557 130.624 189.565 131.539 188.333 146C187.107 131.539 186.11 130.629 170.333 129.5C186.11 128.376 187.102 127.461 188.333 113C189.56 127.461 190.557 128.371 206.333 129.5Z" fill="white"/>
<path d="M125.667 129.5C109.89 130.624 108.898 131.539 107.667 146C106.44 131.539 105.443 130.629 89.6665 129.5C105.443 128.376 106.435 127.461 107.667 113C108.893 127.461 109.89 128.371 125.667 129.5Z" fill="white"/>
<path d="M45 129.5C29.2239 130.624 28.2316 131.539 27 146C25.7735 131.539 24.7761 130.629 9 129.5C24.7761 128.376 25.7684 127.461 27 113C28.2265 127.461 29.2239 128.371 45 129.5Z" fill="white"/>
</g>
<defs>
<clipPath id="clip0_908_3258">
<rect width="320" height="129" fill="white"/>
</clipPath>
</defs>
</svg>
