<svg width="1280" height="522" viewBox="0 0 1280 522" fill="none" xmlns="http://www.w3.org/2000/svg">
<g clip-path="url(#clip0_755_11536)">
<rect width="1283" height="522" transform="translate(-1)" fill="url(#paint0_linear_755_11536)"/>
<path d="M-1 -2.40793C107.943 7.58038 114.796 15.7037 123.301 144.184C131.77 15.7037 138.658 7.62184 247.601 -2.40793C138.658 -12.3962 131.805 -20.5195 123.301 -149C114.831 -20.5195 107.943 -12.4377 -1 -2.40793Z" fill="white"/>
<path d="M306.602 -2.40771C355.683 2.08932 358.77 5.74665 362.602 63.5923C366.417 5.74665 369.52 2.10798 418.602 -2.40771C369.52 -6.90475 366.433 -10.5621 362.602 -68.4077C358.786 -10.5621 355.683 -6.9234 306.602 -2.40771Z" fill="white"/>
<path d="M477.602 -2.40771C526.683 2.08932 529.77 5.74665 533.602 63.5923C537.417 5.74665 540.52 2.10798 589.602 -2.40771C540.52 -6.90475 537.433 -10.5621 533.602 -68.4077C529.786 -10.5621 526.683 -6.9234 477.602 -2.40771Z" fill="white"/>
<path d="M648.602 -2.4082C697.683 2.08883 700.77 5.74616 704.602 63.5918C708.417 5.74616 711.52 2.10749 760.602 -2.4082C711.52 -6.90524 708.433 -10.5626 704.602 -68.4082C700.786 -10.5626 697.683 -6.92389 648.602 -2.4082Z" fill="white"/>
<path d="M819.602 -2.4082C868.683 2.08883 871.77 5.74616 875.602 63.5918C879.417 5.74616 882.52 2.10749 931.602 -2.4082C882.52 -6.90524 879.433 -10.5626 875.602 -68.4082C871.786 -10.5626 868.683 -6.92389 819.602 -2.4082Z" fill="white"/>
<path d="M990.602 -2.4082C1039.68 2.08883 1042.77 5.74616 1046.6 63.5918C1050.42 5.74616 1053.52 2.10749 1102.6 -2.4082C1053.52 -6.90524 1050.43 -10.5626 1046.6 -68.4082C1042.79 -10.5626 1039.68 -6.92389 990.602 -2.4082Z" fill="white"/>
<path d="M1161.6 -2.4082C1210.68 2.08883 1213.77 5.74616 1217.6 63.5918C1221.42 5.74616 1224.52 2.10749 1273.6 -2.4082C1224.52 -6.90524 1221.43 -10.5626 1217.6 -68.4082C1213.79 -10.5626 1210.68 -6.92389 1161.6 -2.4082Z" fill="white"/>
<path d="M1281 466C1231.92 470.497 1228.83 474.154 1225 532C1221.18 474.154 1218.08 470.516 1169 466C1218.08 461.503 1221.17 457.846 1225 400C1228.82 457.846 1231.92 461.484 1281 466Z" fill="white"/>
<path d="M1110 466C1060.92 470.497 1057.83 474.154 1054 532C1050.18 474.154 1047.08 470.516 998 466C1047.08 461.503 1050.17 457.846 1054 400C1057.82 457.846 1060.92 461.484 1110 466Z" fill="white"/>
<path d="M939 466C889.919 470.497 886.831 474.154 883 532C879.184 474.154 876.081 470.516 827 466C876.081 461.503 879.169 457.846 883 400C886.816 457.846 889.919 461.484 939 466Z" fill="white"/>
<path d="M768 466C718.919 470.497 715.831 474.154 712 532C708.184 474.154 705.081 470.516 656 466C705.081 461.503 708.169 457.846 712 400C715.816 457.846 718.919 461.484 768 466Z" fill="white"/>
<path d="M597 466C547.919 470.497 544.831 474.154 541 532C537.184 474.154 534.081 470.516 485 466C534.081 461.503 537.169 457.846 541 400C544.816 457.846 547.919 461.484 597 466Z" fill="white"/>
<path d="M426 466C376.919 470.497 373.831 474.154 370 532C366.184 474.154 363.081 470.516 314 466C363.081 461.503 366.169 457.846 370 400C373.816 457.846 376.919 461.484 426 466Z" fill="white"/>
<path d="M255 466C205.919 470.497 202.831 474.154 199 532C195.184 474.154 192.081 470.516 143 466C192.081 461.503 195.169 457.846 199 400C202.816 457.846 205.919 461.484 255 466Z" fill="white"/>
<path d="M84 466C34.9189 470.497 31.8315 474.154 28 532C24.1843 474.154 21.0811 470.516 -28 466C21.0811 461.503 24.1685 457.846 28 400C31.8157 457.846 34.9189 461.484 84 466Z" fill="white"/>
<path d="M-1 -2.40793C107.943 7.58039 114.796 15.7037 123.301 144.184C131.77 15.7037 138.658 7.62184 247.601 -2.40793C138.658 -12.3962 131.805 -20.5195 123.301 -149C114.831 -20.5195 107.943 -12.4377 -1 -2.40793Z" fill="white"/>
<path d="M306.602 -2.40771C355.683 2.08932 358.77 5.74665 362.602 63.5923C366.417 5.74665 369.52 2.10798 418.602 -2.40771C369.52 -6.90475 366.433 -10.5621 362.602 -68.4077C358.786 -10.5621 355.683 -6.92341 306.602 -2.40771Z" fill="white"/>
<path d="M477.602 -2.40771C526.683 2.08932 529.77 5.74665 533.602 63.5923C537.417 5.74665 540.52 2.10798 589.602 -2.40771C540.52 -6.90475 537.433 -10.5621 533.602 -68.4077C529.786 -10.5621 526.683 -6.92341 477.602 -2.40771Z" fill="white"/>
<path d="M648.602 -2.4082C697.683 2.08883 700.77 5.74617 704.602 63.5918C708.417 5.74617 711.52 2.10749 760.602 -2.4082C711.52 -6.90523 708.433 -10.5626 704.602 -68.4082C700.786 -10.5626 697.683 -6.92389 648.602 -2.4082Z" fill="white"/>
<path d="M819.602 -2.4082C868.683 2.08883 871.77 5.74617 875.602 63.5918C879.417 5.74617 882.52 2.10749 931.602 -2.4082C882.52 -6.90523 879.433 -10.5626 875.602 -68.4082C871.786 -10.5626 868.683 -6.92389 819.602 -2.4082Z" fill="white"/>
<path d="M990.602 -2.4082C1039.68 2.08883 1042.77 5.74617 1046.6 63.5918C1050.42 5.74617 1053.52 2.10749 1102.6 -2.4082C1053.52 -6.90523 1050.43 -10.5626 1046.6 -68.4082C1042.79 -10.5626 1039.68 -6.92389 990.602 -2.4082Z" fill="white"/>
<path d="M1161.6 -2.4082C1210.68 2.08883 1213.77 5.74617 1217.6 63.5918C1221.42 5.74617 1224.52 2.10749 1273.6 -2.4082C1224.52 -6.90523 1221.43 -10.5626 1217.6 -68.4082C1213.79 -10.5626 1210.68 -6.92389 1161.6 -2.4082Z" fill="white"/>
</g>
<defs>
<linearGradient id="paint0_linear_755_11536" x1="641.5" y1="0" x2="641.5" y2="522" gradientUnits="userSpaceOnUse">
<stop stop-color="#E979E5"/>
<stop offset="0.913462" stop-color="white"/>
</linearGradient>
<clipPath id="clip0_755_11536">
<rect width="1283" height="522" fill="white" transform="translate(-1)"/>
</clipPath>
</defs>
</svg>
