<svg width="559" height="259" viewBox="0 0 559 259" fill="none" xmlns="http://www.w3.org/2000/svg">
<path d="M520.975 136.449V247.602H526.337C537.404 247.602 544.897 238.636 548.815 220.704C552.76 202.773 555.355 179.734 556.599 151.59H558.227V254.371H497.623V247.424C502.389 247.424 505.513 243.386 506.996 235.311C508.505 227.236 509.259 214.47 509.259 197.013V63.0598C509.259 45.6031 508.505 32.8372 506.996 24.762C505.513 16.6868 502.389 12.6492 497.623 12.6492V5.70215L556.758 5.70215V102.426H555.408C553.078 64.7817 550.086 40.378 546.432 29.2152C542.805 17.9337 536.662 12.2929 528.005 12.2929H520.975V129.68C526.27 129.68 530.321 123.446 533.128 110.977C535.934 98.5075 537.576 78.6164 538.052 51.3033H539.522V214.826H538.052C537.576 187.513 535.934 167.622 533.128 155.153C530.321 142.684 526.27 136.449 520.975 136.449Z" fill="white"/>
<path d="M458.227 0C464.211 0 468.765 5.047 471.889 15.141C475.04 25.235 477.105 30.282 478.084 30.282C479.805 30.282 482.135 21.5536 485.074 4.09697H486.544L487.656 123.265H486.424C483.618 82.4145 479.779 52.7856 474.907 34.379C470.062 15.8535 464.992 6.59078 459.697 6.59078C453.951 6.59078 449.887 17.3379 447.504 38.8322C445.148 60.2077 443.97 91.1428 443.97 131.638C443.97 179.376 445.664 211.321 449.053 227.471C452.469 243.622 456.784 251.697 462 251.697C468.778 251.697 474.285 242.968 478.521 225.512C482.784 208.055 485.551 188.164 486.822 165.838H488.45C487.311 189.114 484.465 210.489 479.911 229.965C475.357 249.322 469.162 259 461.325 259C452.455 259 444.949 245.7 438.807 219.099C432.691 192.38 429.633 162.276 429.633 128.787C429.633 94.3492 432.598 64.3047 438.529 38.6541C444.486 12.8847 451.052 0 458.227 0Z" fill="white"/>
<path d="M347.978 5.70166L370.218 5.70166L408.82 183.297V95.1226C408.82 61.5155 407.576 39.3681 405.087 28.6803C402.598 17.9926 399.461 12.6487 395.675 12.6487V5.70166H423.078V12.6487C419.371 12.6487 416.313 17.4582 413.904 27.0772C411.521 36.6962 410.329 59.9717 410.329 96.9039V256.864H408.979L361.123 37.2305V176.884C361.123 208.947 362.447 228.72 365.094 236.201C367.742 243.682 371.343 247.423 375.897 247.423V254.37H346.905V247.423C349.977 247.423 352.862 243.861 355.563 236.735C358.264 229.61 359.614 212.569 359.614 185.612V65.1968C359.614 43.8213 358.595 29.7491 356.556 22.9802C354.544 16.0925 351.684 12.6487 347.978 12.6487V5.70166Z" fill="white"/>
<path d="M293.45 169.936H315.214L304.292 60.3868L293.45 169.936ZM308.224 0.891602L309.972 0.891602L333.165 226.403C334.224 235.072 335.627 240.772 337.374 243.504C339.122 246.116 340.975 247.423 342.935 247.423V254.37H310.647V247.423C315.227 247.423 318.073 246.116 319.185 243.504C320.324 240.772 320.893 236.557 320.893 230.857C320.84 224.8 319.212 206.69 316.008 176.527H292.894L290.472 200.931C290.207 204.018 290.075 208.887 290.075 215.537C290.313 226.463 291.173 234.538 292.656 239.763C294.165 244.869 295.966 247.423 298.057 247.423V254.37H275.301V247.423C281.761 247.423 287.4 219.337 292.219 163.167L308.224 0.891602Z" fill="white"/>
<path d="M246.907 63.0598C246.907 45.6031 246.152 32.8372 244.643 24.762C243.16 16.6868 240.036 12.6492 235.271 12.6492V5.70215L270.219 5.70215V12.6492C265.454 12.6492 262.316 16.6868 260.807 24.762C259.324 32.8372 258.583 45.6031 258.583 63.0598V197.013C258.583 214.47 259.324 227.236 260.807 235.311C262.316 243.386 265.454 247.424 270.219 247.424V254.371H235.271V247.424C240.036 247.424 243.16 243.386 244.643 235.311C246.152 227.236 246.907 214.47 246.907 197.013V63.0598Z" fill="white"/>
<path d="M179.192 12.2924V247.067H188.167C199.076 247.067 206.118 236.26 209.296 214.647C212.473 193.034 214.061 167.562 214.061 138.23V124.87C214.061 88.413 212.089 60.5655 208.144 41.3275C204.225 21.9708 197.434 12.2924 187.77 12.2924H179.192ZM194.244 5.70166C205.046 5.70166 213.346 18.9426 219.145 45.4245C224.97 71.7876 227.882 99.6946 227.882 129.145V136.983C227.882 169.996 224.758 197.844 218.509 220.526C212.261 243.089 204.9 254.37 196.428 254.37H155.363V247.423C160.5 247.423 163.809 243.386 165.292 235.31C166.801 227.235 167.556 214.469 167.556 197.013V63.0593C167.556 45.6026 166.801 32.8367 165.292 24.7615C163.809 16.6863 160.5 12.6487 155.363 12.6487V5.70166L194.244 5.70166Z" fill="white"/>
<path d="M98.9298 169.936H120.693L109.772 60.3868L98.9298 169.936ZM113.704 0.891602L115.451 0.891602L138.644 226.403C139.703 235.072 141.107 240.772 142.854 243.504C144.601 246.116 146.455 247.423 148.414 247.423V254.37H116.126V247.423C120.707 247.423 123.553 246.116 124.665 243.504C125.803 240.772 126.372 236.557 126.372 230.857C126.32 224.8 124.691 206.69 121.488 176.527H98.3738L95.9512 200.931C95.6864 204.018 95.5541 208.887 95.5541 215.537C95.7923 226.463 96.6528 234.538 98.1355 239.763C99.6446 244.869 101.445 247.423 103.537 247.423V254.37H80.7803V247.423C87.2405 247.423 92.8799 219.337 97.6986 163.167L113.704 0.891602Z" fill="white"/>
<path d="M23.3124 126.118H37.5699C44.6655 126.118 49.3916 120.892 51.7479 110.442C54.1043 99.8732 55.2825 87.0479 55.2825 71.9663V66.4442C55.2825 51.2439 54.0646 38.4186 51.6288 27.9683C49.193 17.5181 44.3346 12.2929 37.0536 12.2929H23.3124V126.118ZM45.5128 5.70215C54.1441 5.70215 60.1409 11.9961 63.5034 24.5839C66.8924 37.1717 68.5869 50.947 68.5869 65.9099V73.7475C68.5869 90.4917 66.257 104.505 61.5971 115.786C56.9638 127.068 51.2714 132.708 44.5199 132.708H37.4507C41.8988 144.227 45.0892 151.887 47.0219 155.687C48.9547 159.368 51.4832 162.872 54.6074 166.197L64.1389 226.226C65.648 235.133 67.3293 240.892 69.1826 243.505C71.0359 246.117 73.2335 247.424 75.7752 247.424V254.371H54.7662L35.5047 132.708H23.3124L23.3124 197.013C23.3124 214.47 24.0537 227.236 25.5364 235.311C27.0455 243.386 30.183 247.424 34.9487 247.424V254.371H0L0 247.424C4.76574 247.424 7.88994 243.386 9.37261 235.311C10.8818 227.236 11.6363 214.47 11.6363 197.013L11.6363 63.0598C11.6363 45.6031 10.8818 32.8372 9.37261 24.762C7.88994 16.6868 4.76574 12.6492 0 12.6492L0 5.70215L45.5128 5.70215Z" fill="white"/>
</svg>
