<svg width="166" height="163" viewBox="0 0 166 163" fill="none" xmlns="http://www.w3.org/2000/svg">
<g filter="url(#filter0_f_798_13056)">
<ellipse cx="82.5614" cy="81.1704" rx="44.8613" ry="43.4702" fill="white" fill-opacity="0.78"/>
</g>
<path d="M69.7445 49.3936L112.367 47.0156L116.114 87.9165L54.2881 114.55L69.7445 49.3936Z" fill="url(#paint0_linear_798_13056)"/>
<path d="M79.1691 71.4676L54.2881 114.55L116.491 87.7689L112.344 47.0156L97.6414 58.2713V78.4539L79.1691 71.4676Z" fill="url(#paint1_linear_798_13056)"/>
<path d="M54.666 113.774L79.1701 71.4679L72.0073 66.4223L69.7454 49.3447L54.666 113.774Z" fill="url(#paint2_linear_798_13056)"/>
<path d="M95.7574 111.056L54.2891 114.549L116.115 87.7686L95.7574 111.056Z" fill="url(#paint3_linear_798_13056)"/>
<path d="M82.9395 102.129L97.6419 78.4536L116.868 87.7686L82.9395 102.129Z" fill="url(#paint4_linear_798_13056)"/>
<path d="M72.0071 66.4223L69.7451 49.3447L88.9714 55.1666L79.1698 71.4679L72.0071 66.4223Z" fill="url(#paint5_linear_798_13056)"/>
<path d="M97.6422 78.4536L79.1699 71.4673L88.9715 55.166L97.6422 58.271V78.4536Z" fill="url(#paint6_linear_798_13056)"/>
<path d="M97.642 58.2713L69.7451 49.3444L112.344 47.0156L97.642 58.2713Z" fill="url(#paint7_linear_798_13056)"/>
<path d="M86.3326 96.696L79.1699 71.4678L97.6422 78.454L86.3326 96.696Z" fill="url(#paint8_linear_798_13056)"/>
<path d="M97.6413 78.4539L112.344 47.0156L97.6413 58.2713V78.4539Z" fill="url(#paint9_linear_798_13056)"/>
<path style="mix-blend-mode:soft-light" d="M97.0425 49.043C98.7432 48.752 99.0061 48.5266 99.6091 48.5736C103.876 48.921 106.149 55.4746 107.417 61.3897C107.494 62.5822 107.401 64.5539 106.025 66.7416C105.639 67.3612 102.438 72.4877 97.5218 72.6286C94.7388 72.7037 92.3115 71.1732 89.7604 68.948C86.2044 65.8308 80.6694 59.8217 78.1338 49.5218C82.401 49.5031 85.8797 49.5031 89.142 49.5125C92.0332 49.5125 94.2286 49.5406 97.0425 49.0524V49.043Z" fill="url(#paint10_linear_798_13056)"/>
<path style="mix-blend-mode:soft-light" d="M70.6921 74.2584C69.4791 73.8156 69.3142 73.5977 68.8653 73.5651C65.6867 73.347 63.1959 78.5083 61.5235 83.2597C61.3173 84.2386 61.1385 85.8835 61.8753 87.8595C62.0817 88.4188 63.7907 93.0464 67.3852 93.746C69.4204 94.1382 71.3954 93.1577 73.5484 91.6162C76.5515 89.4547 81.3708 85.1314 84.524 76.8969C81.3913 76.3754 78.8355 75.963 76.4376 75.5841C74.3135 75.2413 72.6971 75.0043 70.6909 74.2661L70.6921 74.2584Z" fill="url(#paint11_linear_798_13056)"/>
<defs>
<filter id="filter0_f_798_13056" x="0.00019455" y="0.00019455" width="165.123" height="162.34" filterUnits="userSpaceOnUse" color-interpolation-filters="sRGB">
<feFlood flood-opacity="0" result="BackgroundImageFix"/>
<feBlend mode="normal" in="SourceGraphic" in2="BackgroundImageFix" result="shape"/>
<feGaussianBlur stdDeviation="18.85" result="effect1_foregroundBlur_798_13056"/>
</filter>
<linearGradient id="paint0_linear_798_13056" x1="111.59" y1="50.8969" x2="56.2688" y2="112.955" gradientUnits="userSpaceOnUse">
<stop offset="0.19654" stop-color="white"/>
<stop offset="1" stop-color="#0051FF"/>
</linearGradient>
<linearGradient id="paint1_linear_798_13056" x1="58.9391" y1="47.0156" x2="104.75" y2="97.312" gradientUnits="userSpaceOnUse">
<stop stop-color="white"/>
<stop offset="0.875" stop-color="#0149FC"/>
</linearGradient>
<linearGradient id="paint2_linear_798_13056" x1="76.3427" y1="50.5091" x2="76.3427" y2="103.682" gradientUnits="userSpaceOnUse">
<stop stop-color="white"/>
<stop offset="0.605769" stop-color="#0149FC"/>
</linearGradient>
<linearGradient id="paint3_linear_798_13056" x1="85.2019" y1="87.7686" x2="85.2019" y2="114.549" gradientUnits="userSpaceOnUse">
<stop stop-color="white"/>
<stop offset="1" stop-color="#0051FF"/>
</linearGradient>
<linearGradient id="paint4_linear_798_13056" x1="104.239" y1="78.4536" x2="104.239" y2="98.6362" gradientUnits="userSpaceOnUse">
<stop stop-color="white"/>
<stop offset="1" stop-color="#0051FF"/>
</linearGradient>
<linearGradient id="paint5_linear_798_13056" x1="79.3582" y1="49.3447" x2="79.3582" y2="71.4679" gradientUnits="userSpaceOnUse">
<stop stop-color="white"/>
<stop offset="1" stop-color="#024AFC"/>
</linearGradient>
<linearGradient id="paint6_linear_798_13056" x1="95.7573" y1="47.0154" x2="95.7573" y2="78.4536" gradientUnits="userSpaceOnUse">
<stop offset="0.293269" stop-color="white"/>
<stop offset="1" stop-color="#0051FF"/>
</linearGradient>
<linearGradient id="paint7_linear_798_13056" x1="84.4475" y1="62.9288" x2="134.304" y2="20.5101" gradientUnits="userSpaceOnUse">
<stop offset="0.218097" stop-color="white"/>
<stop offset="1" stop-color="#0051FF"/>
</linearGradient>
<linearGradient id="paint8_linear_798_13056" x1="96.8128" y1="78.1522" x2="85.6428" y2="85.0992" gradientUnits="userSpaceOnUse">
<stop stop-color="#FAC4FA"/>
<stop offset="1" stop-color="white" stop-opacity="0"/>
</linearGradient>
<linearGradient id="paint9_linear_798_13056" x1="98.0937" y1="57.5813" x2="103.239" y2="60.2335" gradientUnits="userSpaceOnUse">
<stop stop-color="#FAC4FA"/>
<stop offset="1" stop-color="white" stop-opacity="0"/>
</linearGradient>
<linearGradient id="paint10_linear_798_13056" x1="99.638" y1="46.4821" x2="95.882" y2="70.2773" gradientUnits="userSpaceOnUse">
<stop offset="0.36" stop-color="white" stop-opacity="0"/>
<stop offset="0.8" stop-color="#2212FF"/>
</linearGradient>
<linearGradient id="paint11_linear_798_13056" x1="69.106" y1="71.8285" x2="69.4331" y2="91.983" gradientUnits="userSpaceOnUse">
<stop offset="0.36" stop-color="white" stop-opacity="0"/>
<stop offset="0.8" stop-color="#2212FF"/>
</linearGradient>
</defs>
</svg>
