<svg width="516" height="395" viewBox="0 0 516 395" fill="none" xmlns="http://www.w3.org/2000/svg">
<path d="M73.0181 100.37C45.5894 135.477 24.6677 192.254 21.7235 189.662C18.7792 187.071 12.0546 132.475 42.4743 98.9119C72.8941 65.3484 97.2977 69.2928 73.0181 100.37Z" fill="#0202E0"/>
<path d="M34.1612 98.6075C22.4858 120.172 16.3474 152.742 14.5075 151.639C12.6675 150.535 3.97503 121.855 17.4191 100.827C30.8632 79.7984 44.4961 79.5191 34.1612 98.6075Z" fill="#0202E0"/>
<path d="M442.982 102.878C470.411 137.986 491.332 194.763 494.277 192.171C497.221 189.579 503.945 134.984 473.526 101.421C443.106 67.8572 418.702 71.8016 442.982 102.878Z" fill="#0202E0"/>
<path d="M481.839 101.117C493.514 122.681 499.653 155.251 501.493 154.148C503.332 153.044 512.025 124.365 498.581 103.336C485.137 82.3076 471.504 82.0284 481.839 101.117Z" fill="#0202E0"/>
<path d="M254.24 54.6737C88.3665 58.9438 38.9814 207.208 38.9814 207.208C38.9814 207.208 144.16 299.967 254.24 299.967C378.268 299.967 476.284 207.207 476.284 207.207C476.284 207.207 403.526 50.8306 254.24 54.6737Z" fill="white"/>
<path d="M476.284 207.205C476.284 207.205 411.443 57.3885 256.879 57.3887C137.073 57.3888 74.6394 140.287 50.668 182.754C42.4137 197.376 38.9814 207.205 38.9814 207.205C74.6988 192.528 100.43 125.699 139.26 129.58C169.019 132.555 277.962 205.018 374.875 211.475C414.428 214.11 444.542 196.19 476.284 207.205Z" fill="url(#paint0_linear_790_12622)"/>
<path d="M254.24 31.7883C79.6959 33.7296 38.9861 207.185 38.9861 207.185C38.9861 207.185 92.5134 61.2693 254.24 58.57C402.395 56.0973 476.284 207.205 476.284 207.205C476.284 207.205 428.784 29.8469 254.24 31.7883Z" fill="#040DE3"/>
<path d="M258.01 357.002C83.4657 354.943 38.9814 207.206 38.9814 207.206C38.9814 207.206 40.8446 209.097 43.8823 211.475C71.7792 240.973 167.272 303.504 258.01 303.504C369.598 303.504 476.284 207.206 476.284 207.206C476.284 207.206 432.554 359.06 258.01 357.002Z" fill="#0051FF"/>
<path d="M258.01 357.002C83.4657 354.944 38.9814 207.206 38.9814 207.206C38.9814 207.206 40.8446 209.098 43.8823 211.476C71.7792 240.973 167.272 303.504 258.01 303.504C369.598 303.504 476.284 207.206 476.284 207.206C476.284 207.206 432.554 359.061 258.01 357.002Z" fill="url(#paint1_linear_790_12622)"/>
<path d="M259.141 317.822C100.807 321.315 38.9814 207.21 38.9814 207.21C38.9814 207.21 92.896 256.236 172.057 284.06C199.609 293.743 224.453 297.631 259.141 299.196C353.764 303.466 476.284 207.21 476.284 207.21C476.284 207.21 417.475 314.328 259.141 317.822Z" fill="#040DE3"/>
<path d="M257.296 0.00891231C136.389 0.893482 105.575 64.3811 105.575 64.3811C105.575 64.3811 106.866 63.5683 108.97 62.5464C128.294 49.8703 194.442 22.9988 257.296 22.9988C334.593 22.9988 408.495 64.3811 408.495 64.3811C408.495 64.3811 378.203 -0.875657 257.296 0.00891231Z" fill="url(#paint2_linear_790_12622)"/>
<path d="M260.545 394.64C139.638 393.755 108.824 330.267 108.824 330.267C108.824 330.267 110.115 331.08 112.219 332.102C131.543 344.778 197.691 371.65 260.545 371.65C337.842 371.65 411.744 330.267 411.744 330.267C411.744 330.267 381.452 395.524 260.545 394.64Z" fill="url(#paint3_linear_790_12622)"/>
<path d="M98.0167 346.8C62.8973 306.893 34.0646 240.661 30.7284 243.967C27.3922 247.272 23.09 312.897 61.6729 350.746C100.256 388.594 129.104 382.125 98.0167 346.8Z" fill="#0051FF"/>
<path d="M51.7747 351.709C36.3744 326.824 26.8304 288.406 24.7103 289.856C22.5902 291.305 14.1737 326.152 31.6478 350.271C49.1218 374.39 65.4068 373.738 51.7747 351.709Z" fill="#0051FF"/>
<path d="M422.262 340.11C457.381 300.203 486.214 233.972 489.55 237.277C492.886 240.582 497.188 306.208 458.605 344.056C420.022 381.904 391.174 375.435 422.262 340.11Z" fill="#0051FF"/>
<path d="M468.503 345.02C483.903 320.134 493.447 281.717 495.567 283.166C497.687 284.616 506.104 319.463 488.63 343.582C471.155 367.7 454.871 367.049 468.503 345.02Z" fill="#0051FF"/>
<defs>
<linearGradient id="paint0_linear_790_12622" x1="305.51" y1="26.7267" x2="317.896" y2="297.995" gradientUnits="userSpaceOnUse">
<stop offset="0.269272" stop-color="#9FBEFF"/>
<stop offset="0.657557" stop-color="white"/>
</linearGradient>
<linearGradient id="paint1_linear_790_12622" x1="476.284" y1="282.115" x2="38.9814" y2="282.115" gradientUnits="userSpaceOnUse">
<stop stop-color="#0051FF"/>
<stop offset="1" stop-color="#D1E0FF" stop-opacity="0"/>
</linearGradient>
<linearGradient id="paint2_linear_790_12622" x1="251.756" y1="-112.876" x2="249.604" y2="40.55" gradientUnits="userSpaceOnUse">
<stop stop-color="#0051FF"/>
<stop offset="1" stop-color="white" stop-opacity="0"/>
</linearGradient>
<linearGradient id="paint3_linear_790_12622" x1="255.005" y1="507.524" x2="252.853" y2="354.098" gradientUnits="userSpaceOnUse">
<stop stop-color="#0051FF"/>
<stop offset="1" stop-color="white" stop-opacity="0"/>
</linearGradient>
</defs>
</svg>
