<svg width="71" height="64" viewBox="0 0 71 64" fill="none" xmlns="http://www.w3.org/2000/svg">
<path d="M56.0507 41.787L48.8053 59.2554L49.6092 59.5868C51.2686 60.2709 52.9765 59.325 54.733 56.7491C56.4933 54.1748 58.3841 50.7146 60.4053 46.3684L60.6494 46.4691L53.9497 62.6217L44.8626 58.8759L45.3154 57.7841C46.03 58.0786 46.7617 57.6372 47.5104 56.4598C48.263 55.284 49.2083 53.3244 50.3462 50.5809L59.0778 29.5293C60.2157 26.7858 60.9347 24.7329 61.2348 23.3706C61.5389 22.0099 61.3336 21.1822 60.619 20.8877L61.0719 19.7959L69.9387 23.451L63.6338 38.6518L63.4313 38.5684C65.5358 32.5082 66.6779 28.4881 66.8577 26.508C67.0492 24.5108 66.4959 23.2447 65.1977 22.7095L64.1437 22.2751L56.4919 40.7233C57.2859 41.0506 58.2997 40.3211 59.5333 38.535C60.7669 36.7489 62.3096 33.7243 64.1615 29.4613L64.3818 29.5521L53.7227 55.2509L53.5024 55.16C55.2113 50.8381 56.2617 47.6106 56.6537 45.4776C57.0457 43.3445 56.8447 42.1143 56.0507 41.787Z" fill="white"/>
<path d="M48.5305 14.6258L51.8652 16.0005L46.077 46.2967L51.8245 32.4396C54.0152 27.158 55.2723 23.6005 55.5958 21.767C55.9193 19.9335 55.7972 18.8997 55.2295 18.6657L55.6823 17.574L59.7912 19.2677L59.3383 20.3595C58.7825 20.1304 58.0105 20.6972 57.0222 22.06C56.0379 23.4244 54.3421 27.0087 51.9347 32.8128L41.5078 57.9516L41.3054 57.8682L48.4464 20.3933L39.3432 42.3408C37.2532 47.3798 36.1628 50.569 36.0721 51.9084C35.9815 53.2478 36.2775 54.0582 36.9603 54.3397L36.5075 55.4315L32.1605 53.6395L32.6133 52.5477C33.0738 52.7376 33.7387 52.3561 34.6081 51.4032C35.4775 50.4504 36.7908 47.8557 38.5479 43.6193L46.3971 24.6952C47.7905 21.3358 48.5549 19.0613 48.6905 17.8715C48.8377 16.6647 48.6335 15.9467 48.0777 15.7176L48.5305 14.6258Z" fill="white"/>
<path d="M42.6628 11.2568C44.1198 11.8574 44.473 14.385 43.7224 18.8397C42.9795 23.2758 41.4818 28.2092 39.2292 33.6401C36.907 39.2389 34.4431 43.8288 31.8375 47.4096C29.2397 50.9717 27.2322 52.4606 25.8149 51.8764C24.4334 51.3069 24.0749 48.8426 24.7393 44.4835C25.4115 40.1058 26.9087 35.1175 29.231 29.5186C31.561 23.9011 34.0249 19.3113 36.6227 15.7492C39.2282 12.1684 41.2416 10.6709 42.6628 11.2568ZM42.2046 12.4119C41.3313 12.0519 39.8953 13.547 37.8967 16.8972C35.9059 20.2288 33.7339 24.7313 31.3807 30.4048C29.0352 36.0596 27.3932 40.7806 26.4546 44.5678C25.5238 48.3363 25.4752 50.3924 26.3089 50.736C27.1783 51.0944 28.6084 49.6078 30.5992 46.2763C32.5978 42.926 34.7698 38.4235 37.1152 32.7687C39.4684 27.0952 41.1105 22.3742 42.0413 18.6057C42.9799 14.8185 43.0344 12.7539 42.2046 12.4119Z" fill="white"/>
<path d="M19.524 37.8756C18.3861 40.619 17.6651 42.6711 17.3611 44.0318C17.061 45.3942 17.2682 46.2226 17.9828 46.5172L19.0011 46.9369L18.5483 48.0287L11.2714 45.0291L11.7243 43.9373L12.7425 44.357C13.4571 44.6516 14.1888 44.2102 14.9375 43.0327C15.6901 41.8569 16.6354 39.8973 17.7733 37.1539L29.8141 8.12387L29.4271 7.96431C28.375 7.53065 26.7464 9.15395 24.5413 12.8342C22.3401 16.5161 20.2265 20.704 18.2006 25.3979L17.9802 25.3071L26.2242 5.43115L36.014 9.4667L27.7701 29.3426L27.5497 29.2518C29.4407 24.5023 30.9091 20.0484 31.9551 15.8903C33.005 11.7338 33.004 9.43878 31.9519 9.00511L31.5649 8.84555L19.524 37.8756Z" fill="white"/>
<path d="M20.3068 1.32063C21.2001 1.68884 21.6471 2.79097 21.6479 4.62703C21.6565 6.44443 21.7442 7.38749 21.9109 7.45622C22.1928 7.57241 22.8326 6.60142 23.8304 4.54326L24.0745 4.6439L18.5244 18.0251L18.2802 17.9245C19.976 13.029 20.8935 9.30961 21.0326 6.76634C21.1834 4.20606 20.826 2.74754 19.9606 2.39079C19.2301 2.08968 18.3926 2.62951 17.448 4.01028C16.5111 5.37238 15.7408 6.78129 15.137 8.23699C13.8288 11.391 13.6548 14.0073 14.615 16.0858C15.5226 18.4705 15.9663 20.7404 15.9463 22.8957C15.9303 25.0526 15.0747 28.1747 13.3794 32.2618C12.0093 35.5652 10.5601 38.213 9.03172 40.2055C7.51508 42.1809 6.27044 42.9681 5.29781 42.5672C4.42443 42.2071 3.98663 41.2509 3.98441 39.6983C3.98994 38.1271 3.78229 37.2548 3.36148 37.0813C2.86921 36.8784 1.95647 38.0647 0.623243 40.6402L0.420778 40.5568L7.95646 22.3885L8.18275 22.4818C6.19734 27.7168 5.03864 32.0907 4.70664 35.6034C4.37861 39.1178 4.72274 41.0844 5.73904 41.5034C6.43378 41.7898 7.26337 41.2467 8.22782 39.8741C9.19227 38.5015 10.0112 37.0034 10.6847 35.3797C11.7993 32.6922 12.2149 30.5471 11.9315 28.9442C11.648 27.3412 11.1653 25.3612 10.4834 23.004C10.0949 21.1611 10.0744 19.3388 10.4219 17.5371C10.7812 15.7183 11.491 13.5305 12.5515 10.9737C13.9062 7.70775 15.3211 5.19869 16.7962 3.44658C18.2831 1.67744 19.4533 0.968792 20.3068 1.32063Z" fill="white"/>
</svg>
