<svg width="141" height="131" viewBox="0 0 141 131" fill="none" xmlns="http://www.w3.org/2000/svg">
<path d="M108.032 88.9813L90.2831 121.134L91.7628 121.946C94.8171 123.621 98.3167 122.162 102.262 117.569C106.214 112.979 110.609 106.708 115.446 98.755L115.896 99.0015L99.4833 128.732L82.7574 119.556L83.8667 117.546C85.182 118.268 86.689 117.573 88.3876 115.462C90.0936 113.354 92.3404 109.776 95.1279 104.726L116.518 65.9784C119.305 60.9288 121.136 57.1219 122.009 54.5575C122.889 51.9971 122.671 50.3561 121.356 49.6345L122.465 47.625L138.786 56.5789L123.341 84.5577L122.968 84.3533C128.336 73.1112 131.407 65.5991 132.181 61.8169C132.982 58.0043 132.187 55.4426 129.798 54.1317L127.858 53.0673L109.113 87.0233C110.575 87.825 112.688 86.635 115.454 83.4531C118.219 80.2712 121.849 74.7659 126.342 66.9374L126.747 67.1598L100.635 114.461L100.23 114.239C104.46 106.266 107.183 100.263 108.4 96.2316C109.616 92.1998 109.494 89.783 108.032 88.9813Z" fill="white"/>
<path d="M99.3816 34.9607L105.519 38.3282L87.8143 95.545L101.894 70.0394C107.261 60.3181 110.454 53.7232 111.474 50.2548C112.493 46.7864 112.481 44.7655 111.436 44.1922L112.545 42.1827L120.108 46.3319L118.999 48.3414C117.976 47.7802 116.364 48.7084 114.163 51.126C111.969 53.5476 107.924 60.1 102.026 70.7832L76.4834 117.054L76.1107 116.849L97.9749 46.0713L75.6746 86.468C70.5547 95.7428 67.7627 101.663 67.2988 104.228C66.8348 106.793 67.2313 108.42 68.4881 109.109L67.3788 111.119L59.3775 106.729L60.4869 104.72C61.3345 105.185 62.6998 104.591 64.5829 102.939C66.466 101.287 69.5598 96.562 73.8644 88.7643L93.0926 53.9324C96.5059 47.7493 98.4717 43.5243 98.99 41.2576C99.5345 38.9606 99.2952 37.5315 98.2722 36.9702L99.3816 34.9607Z" fill="white"/>
<path d="M88.7866 27.2011C91.4683 28.6724 91.6045 33.6253 89.195 42.0599C86.8046 50.4602 82.8503 59.6584 77.3321 69.6545C71.6433 79.9598 65.8988 88.2877 60.0987 94.6384C54.3176 100.955 50.1228 103.397 47.5141 101.966C44.9713 100.571 44.8111 95.7391 47.0337 87.4705C49.2753 79.1675 53.2404 69.8634 58.9293 59.5581C64.6371 49.2185 70.3815 40.8905 76.1626 34.5743C81.9627 28.2236 86.1707 25.7659 88.7866 27.2011ZM87.6533 29.3317C86.0458 28.4498 82.9524 31.0267 78.3733 37.0626C73.8132 43.0641 68.6507 51.2862 62.8861 61.7289C57.1403 72.1373 52.9534 80.8946 50.3253 88.0008C47.7161 95.0727 47.1788 99.0296 48.7132 99.8714C50.3135 100.749 53.3937 98.1876 57.9538 92.1861C62.533 86.1502 67.6954 77.9281 73.4411 67.5198C79.2058 57.0771 83.3927 48.3198 86.0019 41.2479C88.63 34.1416 89.1805 30.1696 87.6533 29.3317Z" fill="white"/>
<path d="M38.3966 73.6014C35.6091 78.651 33.7752 82.456 32.8949 85.0163C32.022 87.5807 32.2431 89.2237 33.5584 89.9453L35.4326 90.9736L34.3233 92.9831L20.9295 85.6348L22.0388 83.6253L23.9131 84.6536C25.2283 85.3752 26.7353 84.6803 28.434 82.5689C30.1399 80.4616 32.3867 76.8831 35.1742 71.8335L64.6708 18.4005L63.9584 18.0097C62.022 16.9473 58.5293 19.7303 53.4803 26.3587C48.4386 32.9912 43.4568 40.6187 38.535 49.2413L38.1295 49.0189L58.3249 12.4351L76.3441 22.321L56.1487 58.9048L55.7432 58.6823C60.4165 49.9233 64.2109 41.6444 67.1262 33.8454C70.0489 26.0504 70.5421 21.6217 68.6057 20.5593L67.8932 20.1685L38.3966 73.6014Z" fill="white"/>
<path d="M47.7949 3.23517C49.439 4.13717 50.0638 6.35964 49.6693 9.90258C49.2937 13.4112 49.2594 15.2497 49.5663 15.418C50.0851 15.7027 51.5291 13.9663 53.8985 10.2089L54.3478 10.4554L40.7515 35.0851L40.3021 34.8385C44.6305 25.7561 47.2032 18.7761 48.0203 13.8985C48.8637 8.99068 48.4889 6.09978 46.8959 5.22584C45.5514 4.4882 43.8189 5.35024 41.6984 7.81196C39.5968 10.2393 37.8064 12.7927 36.3273 15.4721C33.1226 21.2774 32.2224 26.2883 33.6266 30.5048C34.8633 35.3007 35.2299 39.7759 34.7263 43.9303C34.23 48.0887 31.9054 53.9294 27.7526 61.4522C24.3962 67.5324 21.0285 72.3308 17.6496 75.8476C14.297 79.334 11.7255 80.5861 9.93532 79.604C8.32777 78.722 7.68933 76.783 8.02001 73.7868C8.36965 70.7563 8.15719 69.0286 7.38264 68.6036C6.47657 68.1065 4.45944 70.1998 1.33126 74.8835L0.9586 74.6791L19.4189 41.2384L19.8354 41.4669C14.875 51.1425 11.6955 59.3336 10.297 66.0404C8.90587 72.7512 9.14559 76.6197 11.0162 77.646C12.2949 78.3475 14.0128 77.4775 16.1699 75.0358C18.327 72.5941 20.2304 69.879 21.8802 66.8905C24.6108 61.9439 25.8756 57.8938 25.6744 54.7401C25.4732 51.5865 24.9691 47.6624 24.1619 42.9679C23.8099 39.3286 24.1635 35.808 25.2228 32.406C26.3084 28.9737 28.1501 24.9045 30.748 20.1984C34.0665 14.187 37.3379 9.649 40.5624 6.58453C43.813 3.48971 46.2239 2.37326 47.7949 3.23517Z" fill="white"/>
</svg>
