<svg width="127" height="110" viewBox="0 0 127 110" fill="none" xmlns="http://www.w3.org/2000/svg">
<path d="M104.509 45.2457L114.372 78.7205L115.913 78.2694C119.093 77.3382 120.45 74.0075 119.985 68.2775C119.527 62.5452 118.228 55.3887 116.088 46.808L116.556 46.671L125.677 77.6245L108.263 82.724L107.647 80.6319C109.016 80.2308 109.555 78.752 109.265 76.1953C108.982 73.6364 108.066 69.7283 106.517 64.471L94.6297 24.1295C93.0806 18.8722 91.731 15.0911 90.5807 12.7862C89.4381 10.479 88.1821 9.52591 86.8128 9.92692L86.1963 7.83474L103.188 2.85884L111.771 31.9884L111.383 32.102C107.373 20.961 104.348 13.8633 102.307 10.8089C100.264 7.71658 97.9985 6.53466 95.5109 7.26317L93.491 7.85466L103.908 43.2071C105.43 42.7616 106.04 40.5431 105.74 36.5518C105.44 32.5604 104.147 26.4319 101.86 18.1661L102.282 18.0424L116.793 67.2891L116.371 67.4128C113.81 59.2272 111.573 53.3749 109.66 49.8559C107.747 46.3368 106.03 44.8001 104.509 45.2457Z" fill="white"/>
<path d="M62.1646 14.8724L68.5549 13.001L95.4066 63.2375L87.582 36.6829C84.5997 26.5618 82.2768 19.9966 80.6132 16.9873C78.9497 13.9779 77.574 12.6326 76.4861 12.9512L75.8696 10.859L83.7435 8.55315L84.3599 10.6453C83.2949 10.9572 82.843 12.663 83.0043 15.7626C83.1732 18.8599 84.8963 25.9699 88.1737 37.0924L102.369 85.2662L101.981 85.3798L68.7396 23.2616L81.1324 65.3198C83.9777 74.976 86.1127 80.8192 87.5374 82.8496C88.962 84.8799 90.3286 85.7035 91.6371 85.3203L92.2536 87.4125L83.9233 89.852L83.3068 87.7598C84.1893 87.5014 84.7024 86.1856 84.8461 83.8125C84.9897 81.4395 83.8655 76.1938 81.4734 68.0754L70.7877 31.8109C68.8908 25.3735 67.3492 21.2212 66.1627 19.3542C64.9733 17.4493 63.8461 16.6527 62.781 16.9646L62.1646 14.8724Z" fill="white"/>
<path d="M49.817 16.7977C52.609 15.98 56.0513 19.2066 60.144 26.4773C64.2262 33.7123 67.8006 42.5334 70.8672 52.9406C74.0286 63.6698 75.8149 73.1116 76.2261 81.2662C76.6268 89.385 75.4691 93.8421 72.7532 94.6374C70.1058 95.4127 66.7293 92.2835 62.6238 85.2496C58.5077 78.18 54.8689 69.2806 51.7075 58.5515C48.5355 47.7866 46.7492 38.3447 46.3485 30.2259C45.9373 22.0713 47.0935 17.5952 49.817 16.7977ZM50.4993 18.9871C48.8257 19.4772 48.4969 23.2837 49.5131 30.4064C50.5188 37.4933 52.6234 46.4729 55.827 57.3451C59.02 68.1815 62.1403 76.8637 65.1877 83.3915C68.2245 89.8837 70.5418 92.8958 72.1394 92.4279C73.8054 91.9401 74.1356 88.1526 73.13 81.0657C72.1138 73.9429 70.0092 64.9634 66.8161 54.127C63.6125 43.2548 60.4923 34.5726 57.4554 28.0805C54.408 21.5526 52.0893 18.5215 50.4993 18.9871Z" fill="white"/>
<path d="M47.4535 81.7681C49.0026 87.0254 50.3485 90.8076 51.4911 93.1148C52.6413 95.4197 53.9011 96.3717 55.2705 95.9707L57.2218 95.3992L57.8383 97.4914L43.8936 101.575L43.2771 99.4829L45.2285 98.9114C46.5978 98.5104 47.1372 97.0316 46.8467 94.4749C46.5637 91.916 45.6477 88.0079 44.0986 82.7506L27.7065 27.1201L26.9647 27.3373C24.9487 27.9277 24.4919 32.1407 25.5942 39.9763C26.7041 47.8098 28.5275 56.2695 31.0643 65.3556L30.6421 65.4793L19.4189 27.3909L38.1792 21.897L49.4023 59.9854L48.9801 60.1091C46.1847 51.0987 43.1251 43.001 39.8013 35.8158C36.4852 28.6285 33.8192 25.33 31.8032 25.9204L31.0614 26.1376L47.4535 81.7681Z" fill="white"/>
<path d="M6.13932 28.3079C7.85102 27.8066 9.7733 28.8754 11.9061 31.5141C14.0285 34.1172 15.2494 35.3719 15.5689 35.2783C16.109 35.1201 15.9016 32.9859 14.9466 28.8755L15.4145 28.7385L22.9703 54.3811L22.5025 54.5181C19.257 45.523 16.2578 39.1169 13.5051 35.2999C10.7495 31.445 8.5424 29.7603 6.88394 30.246C5.48415 30.6559 4.90674 32.3984 5.15172 35.4735C5.38617 38.5128 5.91438 41.4273 6.73635 44.2168C8.5173 50.2609 11.3046 54.2232 15.0982 56.1037C19.1716 58.485 22.445 61.2365 24.9185 64.3583C27.3996 67.4778 29.7941 72.9538 32.102 80.786C33.9672 87.1162 34.9578 92.5953 35.0736 97.2234C35.1865 101.813 34.311 104.381 32.4472 104.927C30.7735 105.417 29.0338 104.548 27.2282 102.318C25.412 100.053 24.1007 99.0382 23.2943 99.2743C22.3509 99.5506 22.4159 102.309 23.4892 107.55L23.1012 107.664L12.8424 72.8481L13.276 72.7211C16.4994 82.5386 19.9115 90.164 23.5124 95.5974C27.1209 101.029 29.8989 103.459 31.8465 102.889C33.1778 102.499 33.74 100.761 33.5331 97.6745C33.3261 94.5883 32.7642 91.4894 31.8474 88.378C30.3299 83.228 28.4369 79.6643 26.1684 77.6868C23.8998 75.7094 20.907 73.4196 17.19 70.8173C14.4919 68.616 12.3468 66.0197 10.7546 63.0283C9.15955 59.999 7.64015 56.0345 6.19642 51.1348C4.35225 44.8762 3.47351 39.6362 3.56022 35.4151C3.64399 31.1559 4.50369 28.7868 6.13932 28.3079Z" fill="white"/>
</svg>
