<svg width="90" height="89" viewBox="0 0 90 89" fill="none" xmlns="http://www.w3.org/2000/svg">
<path d="M66.3749 26.1944L82.514 42.9395L83.2846 42.2013C84.8753 40.6776 84.6505 38.2953 82.61 35.0544C80.5734 31.8099 77.6013 27.982 73.6936 23.5707L73.9277 23.3465L88.8512 38.8304L80.1404 47.1743L79.1317 46.1278C79.8167 45.4716 79.6795 44.4332 78.7201 43.0126C77.7645 41.5883 76.0194 39.5612 73.4847 36.9314L54.0349 16.7514C51.5003 14.1216 49.5382 12.3023 48.1488 11.2935C46.7632 10.2812 45.7279 10.103 45.0429 10.7592L44.0342 9.71262L52.5338 1.57096L66.578 16.1424L66.3839 16.3283C60.5831 10.9779 56.6097 7.71345 54.4637 6.53483C52.3043 5.33468 50.6024 5.3306 49.358 6.52259L48.3476 7.49041L65.392 25.1747C66.1531 24.4457 65.8301 22.9487 64.423 20.6839C63.0159 18.419 60.3637 15.1964 56.4664 11.0161L56.6776 10.8138L80.4208 35.4484L80.2096 35.6507C76.1753 31.6016 73.0512 28.831 70.8373 27.3389C68.6234 25.8469 67.136 25.4654 66.3749 26.1944Z" fill="white"/>
<path d="M32.0125 21.2286L35.2092 18.1666L66.5441 39.6063L53.7414 26.323C48.8617 21.2601 45.4671 18.0949 43.5575 16.8275C41.6479 15.56 40.4211 15.1869 39.8769 15.7082L38.8682 14.6616L42.8069 10.8888L43.8156 11.9354C43.2828 12.4457 43.5416 13.5913 44.592 15.3721C45.6461 17.1493 48.8544 20.8197 54.2169 26.3835L77.4428 50.4814L77.2487 50.6673L38.4799 24.1685L58.7573 45.2072C63.4128 50.0375 66.474 52.8339 67.9408 53.5965C69.4077 54.359 70.4684 54.4268 71.1229 53.7998L72.1316 54.8464L67.9646 58.8379L66.9559 57.7913C67.3973 57.3685 67.2948 56.4345 66.6484 54.9892C66.002 53.544 63.7218 50.7909 59.8077 46.7299L42.3236 28.5894C39.22 25.3692 37.0302 23.3895 35.7543 22.6505C34.465 21.8899 33.554 21.7648 33.0212 22.2751L32.0125 21.2286Z" fill="white"/>
<path d="M25.3145 26.147C26.7111 24.8091 29.7379 25.6601 34.3949 28.6999C39.0347 31.7217 43.8634 35.8356 48.881 41.0416C54.0538 46.4086 58.018 51.4367 60.7736 56.1258C63.5119 60.797 64.2018 63.7832 62.8432 65.0846C61.5189 66.3531 58.5609 65.5394 53.9693 62.6435C49.3604 59.7296 44.4696 55.5892 39.2968 50.2222C34.1068 44.8373 30.1426 39.8093 27.4043 35.1381C24.6487 30.449 23.9521 27.4519 25.3145 26.147ZM26.392 27.2308C25.5548 28.0327 26.5336 30.381 29.3285 34.2755C32.106 38.1521 36.1157 42.8097 41.3575 48.2483C46.582 53.669 51.0997 57.8399 54.9106 60.7612C58.7043 63.6645 61.0007 64.7334 61.7999 63.9679C62.6333 63.1696 61.6612 60.8322 58.8836 56.9555C56.0888 53.061 52.0791 48.4034 46.8546 42.9827C41.6128 37.5442 37.0951 33.3732 33.3014 30.4699C29.4905 27.5486 27.1874 26.4689 26.392 27.2308Z" fill="white"/>
<path d="M43.9392 65.2327C46.4739 67.8625 48.434 69.6836 49.8196 70.696C51.209 71.7047 52.2462 71.881 52.9312 71.2249L53.9073 70.2899L54.916 71.3364L47.9405 78.0182L46.9318 76.9716L47.9079 76.0366C48.5929 75.3805 48.4557 74.3421 47.4963 72.9214C46.5408 71.4971 44.7956 69.47 42.2609 66.8402L15.4399 39.0123L15.0689 39.3677C14.0604 40.3337 15.0889 42.9612 18.1542 47.2503C21.2234 51.5358 24.9068 55.9726 29.2046 60.5607L28.9933 60.7631L10.6299 41.7102L20.0143 32.721L38.3778 51.7739L38.1666 51.9762C33.7395 47.512 29.4376 43.6675 25.2611 40.4428C21.0883 37.2145 18.4977 36.0833 17.4892 37.0493L17.1182 37.4047L43.9392 65.2327Z" fill="white"/>
<path d="M3.07106 46.3183C3.9273 45.4981 5.39167 45.5405 7.46416 46.4454C9.51941 47.3325 10.6269 47.6994 10.7868 47.5463C11.057 47.2875 10.2768 46.0908 8.44639 43.9563L8.68043 43.7321L21.0434 56.5592L20.8094 56.7834C16.1213 52.466 12.3764 49.6019 9.57486 48.1911C6.75985 46.7588 4.93755 46.4399 4.10794 47.2346C3.40773 47.9053 3.60373 49.1111 4.69594 50.8518C5.77091 52.5746 6.98086 54.1337 8.32579 55.5291C11.2398 58.5525 14.1065 60.0386 16.926 59.9871C20.065 60.1458 22.8457 60.768 25.2682 61.8538C27.6944 62.936 30.7956 65.436 34.5718 69.3539C37.6237 72.5204 39.897 75.4523 41.3914 78.1496C42.8725 80.8253 43.1468 82.6097 42.2145 83.5027C41.3773 84.3047 40.0821 84.3239 38.3289 83.5604C36.5584 82.779 35.4715 82.5815 35.0681 82.9679C34.5962 83.4199 35.4847 85.029 37.7335 87.795L37.5394 87.9809L20.7537 70.565L20.9706 70.3572C25.899 75.1669 30.2635 78.6245 34.0639 80.73C37.8682 82.8319 40.2574 83.4162 41.2317 82.483C41.8976 81.8451 41.694 80.6467 40.6208 78.8877C39.5476 77.1288 38.261 75.4711 36.7609 73.9147C34.2779 71.3385 32.062 69.814 30.1132 69.3411C28.1644 68.8682 25.6917 68.4326 22.695 68.0344C20.4236 67.5609 18.3569 66.6848 16.495 65.4061C14.6197 64.1058 12.5009 62.2302 10.1387 59.7793C7.12123 56.6486 4.98773 53.8237 3.73821 51.3047C2.47526 48.7641 2.25287 47.102 3.07106 46.3183Z" fill="white"/>
</svg>
