<svg width="99" height="83" viewBox="0 0 99 83" fill="none" xmlns="http://www.w3.org/2000/svg">
<path d="M82.3048 50.6988L76.4461 78.2654L77.7147 78.5334C80.3334 79.0865 82.579 77.2374 84.4513 72.9861C86.3299 68.736 88.1582 63.1521 89.9361 56.2343L90.3214 56.3157L84.904 81.806L70.5637 78.777L70.9299 77.0541C72.0575 77.2923 73.0096 76.4471 73.7861 74.5185C74.5688 72.5912 75.4202 69.4629 76.3403 65.1335L83.4009 31.9122C84.321 27.5828 84.8153 24.379 84.8838 22.3009C84.9586 20.2241 84.4322 19.0666 83.3045 18.8284L83.6707 17.1055L97.6633 20.061L92.5651 44.0493L92.2456 43.9818C93.6785 34.5292 94.2568 28.3274 93.9806 25.3763C93.717 22.3971 92.5609 20.6912 90.5122 20.2585L88.8489 19.9072L82.6616 49.02C83.9146 49.2847 85.2017 47.9409 86.523 44.9888C87.8443 42.0366 89.2812 37.1855 90.8336 30.4355L91.1813 30.5089L82.5622 71.0637L82.2145 70.9903C83.5414 64.1926 84.2014 59.1774 84.1945 55.9448C84.1877 52.7121 83.5578 50.9634 82.3048 50.6988Z" fill="white"/>
<path d="M63.8795 12.9252L69.142 14.0367L68.9154 60.0109L73.5629 38.1431C75.3343 29.8083 76.2072 24.2534 76.1816 21.4783C76.1561 18.7033 75.6954 17.2212 74.7995 17.032L75.1657 15.309L81.6498 16.6786L81.2836 18.4016C80.4066 18.2163 79.4295 19.2562 78.3524 21.5214C77.2815 23.7879 75.7728 29.5008 73.8261 38.6603L65.3948 78.3315L65.0753 78.264L65.3282 21.4016L57.9672 56.0366C56.2772 63.9885 55.5483 68.9584 55.7804 70.9461C56.0126 72.9339 56.6674 74.0416 57.745 74.2692L57.3788 75.9921L50.5188 74.5431L50.8849 72.8202C51.6117 72.9737 52.4823 72.2344 53.4969 70.6023C54.5115 68.9702 55.7292 64.8114 57.15 58.1259L63.497 28.262C64.6237 22.9607 65.1242 19.4197 64.9986 17.6391C64.8855 15.8304 64.3904 14.8333 63.5133 14.6481L63.8795 12.9252Z" fill="white"/>
<path d="M54.3603 9.57601C56.6595 10.0617 57.8661 13.6708 57.9801 20.4036C58.1003 27.1069 57.2497 34.7437 55.4283 43.3141C53.5505 52.1496 51.19 59.5444 48.347 65.4987C45.5102 71.4235 42.9735 74.1497 40.7369 73.6773C38.5568 73.2168 37.3596 69.702 37.1454 63.1327C36.9375 56.534 37.7724 48.8169 39.6502 39.9814C41.5343 31.1165 43.8947 23.7216 46.7315 17.7968C49.5746 11.8426 52.1175 9.10228 54.3603 9.57601ZM54.0036 11.3932C52.6253 11.1021 50.9281 13.6825 48.9118 19.1344C46.9019 24.5569 44.9455 31.7447 43.0426 40.698C41.1461 49.6218 40.026 56.9863 39.6825 62.7915C39.3453 68.5673 39.8344 71.5941 41.1501 71.872C42.5221 72.1618 44.2131 69.5955 46.223 64.173C48.2393 58.7211 50.1957 51.5333 52.0922 42.6095C53.9951 33.6562 55.1151 26.2917 55.4523 20.5159C55.7959 14.7107 55.3129 11.6698 54.0036 11.3932Z" fill="white"/>
<path d="M27.6998 54.8601C26.7796 59.1895 26.2822 62.3926 26.2074 64.4694C26.1388 66.5475 26.6684 67.7057 27.7961 67.9438L29.403 68.2833L29.0369 70.0062L17.5534 67.5806L17.9195 65.8577L19.5265 66.1971C20.6541 66.4353 21.6062 65.5901 22.3827 63.6615C23.1654 61.7342 24.0168 58.6059 24.937 54.2765L34.6733 8.46461L34.0625 8.33559C32.4023 7.98492 30.4577 10.8054 28.2285 16.797C26.0057 22.79 24.0492 29.5008 22.3591 36.9296L22.0114 36.8561L28.6775 5.49023L44.1267 8.75342L37.4605 40.1193L37.1128 40.0459C38.5899 32.5722 39.5284 25.6463 39.9282 19.2682C40.3342 12.8915 39.7071 9.52786 38.047 9.17719L37.4361 9.04817L27.6998 54.8601Z" fill="white"/>
<path d="M18.8856 1.06788C20.2952 1.36562 21.2508 2.85996 21.7525 5.55091C22.2604 8.2124 22.6459 9.57094 22.9091 9.62652C23.3539 9.72047 24.027 8.12394 24.9285 4.83694L25.3138 4.91832L20.8259 26.0351L20.4406 25.9537C21.5919 18.3188 21.9229 12.6187 21.4336 8.85326C20.9568 5.05971 20.0355 3.0187 18.6698 2.73023C17.5171 2.48675 16.4366 3.50486 15.4284 5.78458C14.4265 8.03484 13.6814 10.3086 13.1932 12.6058C12.1353 17.5831 12.5934 21.465 14.5672 24.2515C16.5474 27.501 17.8166 30.7079 18.3747 33.8724C18.9391 37.0382 18.5359 41.846 17.1651 48.2959C16.0572 53.5089 14.6547 57.7825 12.9576 61.1169C11.273 64.4231 9.66326 65.9141 8.12836 65.5899C6.75009 65.2988 5.84776 64.0158 5.42135 61.7408C5.00121 59.4363 4.4591 58.214 3.79502 58.0737C3.01818 57.9096 2.00366 59.8956 0.751485 64.0318L0.431976 63.9643L6.52542 35.2932L6.88252 35.3686C5.39928 43.5797 4.89306 50.3045 5.36385 55.5431C5.84091 60.7831 6.88134 63.5724 8.48515 63.9112C9.5815 64.1428 10.6494 63.122 11.689 60.8489C12.7285 58.5758 13.5205 56.1581 14.0651 53.5958C14.9664 49.3548 14.9909 46.098 14.1385 43.8253C13.2861 41.5527 12.0389 38.7812 10.397 35.5109C9.32528 32.9149 8.79857 30.2495 8.81687 27.5145C8.8477 24.7514 9.29188 21.3524 10.1494 17.3175C11.2448 12.1635 12.6348 8.10262 14.3194 5.1349C16.0166 2.13905 17.5387 0.783377 18.8856 1.06788Z" fill="white"/>
</svg>
