<svg width="90" height="89" viewBox="0 0 90 89" fill="none" xmlns="http://www.w3.org/2000/svg">
<path d="M64.2792 64.7661L48.4178 81.7728L49.2005 82.4983C50.816 83.9958 53.1892 83.6378 56.3201 81.4244C59.4548 79.2146 63.1211 76.0408 67.319 71.903L67.5567 72.1233L52.8899 87.8491L44.043 79.6487L45.0343 78.5858C45.73 79.2306 46.7622 79.0356 48.131 78.0007C49.5036 76.9694 51.4355 75.1182 53.9265 72.4473L73.0416 51.952C75.5327 49.2811 77.2442 47.2257 78.1762 45.786C79.1121 44.3498 79.2322 43.3093 78.5365 42.6645L79.5279 41.6016L88.1603 49.6031L74.3578 64.4023L74.1607 64.2196C79.1925 58.1445 82.2381 54.0059 83.2977 51.8035C84.378 49.5866 84.2863 47.8924 83.0224 46.7209L81.9963 45.7698L65.2452 63.7304C66.0182 64.4469 67.4992 64.0411 69.6882 62.5131C71.8772 60.985 74.9553 58.1637 78.9224 54.0492L79.137 54.248L55.8023 79.2676L55.5878 79.0687C59.4158 74.8252 62.0146 71.5597 63.3843 69.2722C64.7539 66.9846 65.0522 65.4826 64.2792 64.7661Z" fill="white"/>
<path d="M67.3182 30.2847L70.5648 33.2941L50.8572 65.69L63.4396 52.1991C68.2353 47.0571 71.2141 43.5001 72.3759 41.5281C73.5378 39.556 73.8423 38.3139 73.2896 37.8016L74.281 36.7387L78.2812 40.4466L77.2899 41.5095C76.7488 41.0079 75.6161 41.33 73.8917 42.4757C72.1713 43.6251 68.6759 47.0251 63.4057 52.6758L40.5795 77.1503L40.3824 76.9676L64.738 36.8875L44.8095 58.2549C40.2341 63.1607 37.6058 66.3651 36.9247 67.868C36.2436 69.371 36.2355 70.4305 36.9003 71.0467L35.9089 72.1096L31.6768 68.1868L32.6681 67.1239C33.1164 67.5394 34.0461 67.3848 35.4571 66.6601C36.8681 65.9353 39.4969 63.5107 43.3437 59.3862L60.5269 40.9622C63.5772 37.6917 65.4365 35.4007 66.1048 34.0892C66.7939 32.763 66.8679 31.8492 66.3268 31.3477L67.3182 30.2847Z" fill="white"/>
<path d="M62.0149 23.8948C63.4334 25.2096 62.7516 28.2702 59.9695 33.0767C57.2043 37.865 53.3561 42.9028 48.4249 48.1901C43.3411 53.641 38.5287 57.8698 33.9877 60.8765C29.4637 63.8651 26.5118 64.7199 25.132 63.441C23.787 62.1942 24.4354 59.2043 27.0771 54.471C29.7358 49.7196 33.6071 44.6184 38.6909 39.1675C43.7916 33.6985 48.604 29.4697 53.128 26.4811C57.669 23.4744 60.6313 22.6123 62.0149 23.8948ZM60.9902 25.0284C60.1399 24.2402 57.8432 25.3467 54.1002 28.3478C50.3742 31.3307 45.9353 35.5839 40.7838 41.1075C35.6491 46.6129 31.7263 51.3444 29.0152 55.302C26.3211 59.2414 25.3799 61.5873 26.1916 62.3396C27.038 63.1242 29.3242 62.0251 33.0503 59.0421C36.7933 56.0411 41.2321 51.7878 46.3667 46.2824C51.5183 40.7589 55.4412 36.0274 58.1353 32.0879C60.8463 28.1303 61.7979 25.7771 60.9902 25.0284Z" fill="white"/>
<path d="M23.9189 44.6332C21.4278 47.3041 19.7143 49.3577 18.7785 50.7938C17.8464 52.2336 17.7283 53.2759 18.424 53.9207L19.4153 54.8396L18.424 55.9026L11.3395 49.3358L12.3308 48.2729L13.3222 49.1918C14.0179 49.8366 15.0501 49.6416 16.4189 48.6067C17.7915 47.5754 19.7234 45.7242 22.2144 43.0533L48.5739 14.7905L48.1971 14.4412C47.1728 13.4918 44.5993 14.6634 40.4763 17.956C36.3572 21.2522 32.1212 25.1682 27.7681 29.7042L27.5536 29.5054L45.6011 10.1548L55.1322 18.9893L37.0847 38.3399L36.8702 38.1411C41.0918 33.4833 44.6998 28.985 47.6942 24.6464C50.6924 20.3113 51.6794 17.6691 50.6552 16.7197L50.2784 16.3704L23.9189 44.6332Z" fill="white"/>
<path d="M40.561 2.8911C41.4306 3.69716 41.4706 5.15709 40.681 7.27087C39.9083 9.36648 39.6032 10.4895 39.7655 10.64C40.0399 10.8943 41.1945 10.0505 43.2292 8.10836L43.4669 8.32869L31.3166 21.3563L31.0789 21.136C35.1388 16.2266 37.7964 12.338 39.0515 9.47002C40.3275 6.58749 40.5442 4.75573 39.7016 3.97474C38.9905 3.31556 37.794 3.57853 36.1122 4.76367C34.4473 5.93063 32.9539 7.22273 31.6322 8.63996C28.7683 11.7106 27.4415 14.6477 27.6517 17.4511C27.6696 20.5843 27.203 23.3871 26.252 25.8594C25.3048 28.3353 22.9757 31.5628 19.2645 35.542C16.265 38.758 13.4568 41.1857 10.8396 42.8251C8.2433 44.4499 6.47168 44.8234 5.52475 43.9457C4.67446 43.1576 4.58227 41.8695 5.2482 40.0815C5.93108 38.2753 6.06767 37.1823 5.65798 36.8026C5.17872 36.3583 3.6173 37.3332 0.973723 39.7273L0.776608 39.5446L17.2735 21.8565L17.4938 22.0607C12.9544 27.237 9.73735 31.7757 7.8427 35.677C5.95191 39.5819 5.50124 41.9929 6.49068 42.91C7.16705 43.537 8.35581 43.2668 10.057 42.0996C11.7581 40.9324 13.3458 39.5584 14.8201 37.9777C17.2604 35.3612 18.6624 33.0698 19.0263 31.1035C19.3901 29.1371 19.6871 26.6514 19.9172 23.6463C20.2635 21.3588 21.0246 19.2524 22.2004 17.3272C23.397 15.3875 25.1561 13.173 27.4777 10.6837C30.4432 7.50404 33.1522 5.22144 35.6046 3.83591C38.0779 2.43579 39.73 2.12085 40.561 2.8911Z" fill="white"/>
</svg>
