<svg width="76" height="68" viewBox="0 0 76 68" fill="none" xmlns="http://www.w3.org/2000/svg">
<path d="M59.4834 45.1191L51.4481 63.5189L52.2949 63.8864C54.0428 64.645 55.8743 63.6745 57.7895 60.9747C59.7088 58.2768 61.784 54.641 64.0151 50.0674L64.2723 50.179L56.8423 67.1929L47.2706 63.0387L47.7728 61.8887C48.5255 62.2154 49.3108 61.7612 50.1287 60.526C50.9508 59.2928 51.9929 57.2313 53.2548 54.3415L62.9384 32.1674C64.2003 29.2777 65.004 27.1127 65.3494 25.6726C65.699 24.2342 65.4974 23.3517 64.7448 23.025L65.247 21.875L74.5865 25.9285L67.5943 41.9399L67.381 41.8473C69.7344 35.4561 71.026 31.2113 71.2559 29.113C71.4986 26.9969 70.9363 25.6421 69.5689 25.0486L68.4587 24.5667L59.9727 43.9986C60.809 44.3616 61.8995 43.6072 63.2441 41.7355C64.5888 39.8638 66.286 36.6836 68.3357 32.195L68.5678 32.2957L56.7467 59.3646L56.5146 59.2639C58.4138 54.7099 59.5925 51.3047 60.0506 49.0482C60.5088 46.7918 60.3197 45.4821 59.4834 45.1191Z" fill="white"/>
<path d="M52.0374 16.1419L55.5499 17.6664L48.8083 49.7109L55.1824 35.1149C57.6119 29.5517 59.0164 25.8002 59.396 23.8604C59.7755 21.9205 59.6663 20.8209 59.0683 20.5614L59.5705 19.4114L63.8985 21.2898L63.3963 22.4397C62.8109 22.1857 61.9802 22.7722 60.9043 24.1993C59.8326 25.6283 57.9618 29.3996 55.292 35.5132L43.7284 61.9924L43.5151 61.8998L51.8343 22.2621L41.7387 45.3798C39.4209 50.6875 38.2006 54.0513 38.0779 55.4712C37.9552 56.8911 38.2535 57.7572 38.9727 58.0693L38.4705 59.2193L33.8917 57.232L34.3939 56.082C34.879 56.2926 35.5923 55.9007 36.5339 54.9063C37.4755 53.9119 38.9207 51.1836 40.8694 46.7212L49.5743 26.7881C51.1195 23.2497 51.9758 20.8504 52.1432 19.5901C52.3233 18.312 52.1206 17.5459 51.5352 17.2918L52.0374 16.1419Z" fill="white"/>
<path d="M45.8751 12.4493C47.4098 13.1154 47.7348 15.8053 46.8502 20.519C45.9742 25.2131 44.2871 30.4204 41.7889 36.1408C39.2135 42.0382 36.5077 46.8618 33.6714 50.6115C30.8436 54.3416 28.6834 55.8827 27.1905 55.2348C25.7354 54.6032 25.4034 51.9804 26.1947 47.3665C26.9946 42.7329 28.6822 37.4674 31.2576 31.5701C33.8416 25.653 36.5475 20.8295 39.3752 17.0994C42.2115 13.3496 44.3781 11.7996 45.8751 12.4493ZM45.366 13.6665C44.446 13.2672 42.8923 14.826 40.7049 18.3429C38.526 21.8402 36.1317 26.5768 33.5219 32.5528C30.9208 38.5092 29.0847 43.4881 28.0137 47.4896C26.9513 51.4714 26.8592 53.6529 27.7373 54.034C28.6531 54.4314 30.2004 52.8815 32.3793 49.3843C34.5668 45.8674 36.9611 41.1308 39.5622 35.1744C42.172 29.1984 44.0081 24.2195 45.0705 20.2377C46.1414 16.2362 46.2399 14.0458 45.366 13.6665Z" fill="white"/>
<path d="M20.7889 40.2507C19.5269 43.1404 18.7212 45.3044 18.3716 46.7428C18.0262 48.183 18.2298 49.0664 18.9825 49.3931L20.0551 49.8586L19.5529 51.0086L11.888 47.6819L12.3902 46.5319L13.4628 46.9975C14.2155 47.3241 15.0008 46.8699 15.8187 45.6348C16.6408 44.4015 17.6829 42.34 18.9448 39.4503L32.2983 8.87242L31.8906 8.69547C30.7825 8.21453 29.0218 9.90566 26.6085 13.7688C24.1994 17.6339 21.8733 22.0377 19.6303 26.9803L19.3982 26.8795L28.5409 5.94385L38.8527 10.4193L29.71 31.355L29.4779 31.2543C31.5788 26.25 33.2253 21.5513 34.4176 17.1581C35.614 12.7668 35.6582 10.3307 34.5501 9.84974L34.1424 9.67279L20.7889 40.2507Z" fill="white"/>
<path d="M22.3422 1.46461C23.2831 1.87295 23.7358 3.05158 23.7005 5.00048C23.6737 6.92973 23.7482 7.93246 23.9238 8.00869C24.2207 8.13755 24.919 7.11943 26.0187 4.95435L26.2759 5.06596L20.1206 19.1607L19.8635 19.0491C21.7601 13.886 22.8073 9.95602 23.0051 7.25919C23.2157 4.54453 22.8652 2.98937 21.9536 2.59373C21.1842 2.25979 20.2845 2.81638 19.2546 4.26348C18.2333 5.69092 17.3879 7.1713 16.7183 8.70462C15.2674 12.0268 15.0311 14.8004 16.0093 17.0255C16.9256 19.5745 17.3518 21.9927 17.2881 24.28C17.2285 26.5692 16.2587 29.8663 14.3787 34.1714C12.8592 37.6508 11.2686 40.433 9.60706 42.5179C7.95824 44.585 6.62159 45.3962 5.5971 44.9515C4.67715 44.5523 4.23132 43.5286 4.25959 41.8806C4.29645 40.213 4.09325 39.283 3.65 39.0906C3.13149 38.8656 2.13925 40.1069 0.673286 42.8145L0.460025 42.7219L8.81723 23.585L9.05558 23.6884C6.84488 29.2063 5.52868 33.8262 5.10698 37.5483C4.68946 41.2722 5.01594 43.3664 6.08643 43.831C6.81821 44.1486 7.70949 43.5884 8.76029 42.1504C9.81108 40.7124 10.7099 39.1382 11.4568 37.428C12.693 34.5973 13.1764 32.3284 12.9072 30.6214C12.6379 28.9144 12.1646 26.8033 11.4873 24.2878C11.1113 22.3241 11.1255 20.3894 11.5299 18.4838C11.9471 16.5603 12.7438 14.252 13.9199 11.5589C15.4222 8.11872 16.9735 5.48322 18.5739 3.65236C20.1871 1.80366 21.4432 1.07441 22.3422 1.46461Z" fill="white"/>
</svg>
