<svg width="135" height="128" viewBox="0 0 135 128" fill="none" xmlns="http://www.w3.org/2000/svg">
<path d="M101.543 88.8642L82.5163 118.147L83.8639 119.017C86.6456 120.813 90.0636 119.668 94.1181 115.58C98.1792 111.496 102.775 105.848 107.905 98.6353L108.315 98.8996L90.7209 125.977L75.488 116.14L76.6772 114.309C77.8751 115.083 79.3515 114.526 81.1065 112.64C82.8681 110.757 85.243 107.517 88.2312 102.918L111.161 67.6287C114.149 63.0298 116.145 59.5442 117.148 57.1719C118.158 54.8039 118.063 53.2331 116.866 52.4595L118.055 50.6294L132.918 60.2279L116.361 85.7092L116.022 85.4901C121.88 75.1946 125.305 68.28 126.298 64.7462C127.317 61.1854 126.739 58.7024 124.563 57.2971L122.796 56.1561L102.702 87.081C104.033 87.9405 106.118 86.9556 108.958 84.1262C111.798 81.2969 115.615 76.3231 120.411 69.205L120.78 69.4435L92.7885 112.523L92.4191 112.284C96.9748 105.011 99.9671 99.5046 101.396 95.7641C102.825 92.0237 102.874 89.7237 101.543 88.8642Z" fill="white"/>
<path d="M97.0323 37.0534L102.622 40.6633L81.9246 93.7154L97.0181 70.4865C102.771 61.6329 106.249 55.5963 107.453 52.3767C108.657 49.1571 108.783 47.2401 107.832 46.6255L109.021 44.7954L115.909 49.2433L114.719 51.0734C113.788 50.4718 112.196 51.2425 109.944 53.3855C107.698 55.5327 103.414 61.4712 97.0925 71.2007L69.7107 113.341L69.3714 113.122L94.9393 47.4932L71.0337 84.284C65.5451 92.7309 62.4932 98.1547 61.8781 100.555C61.2629 102.956 61.5276 104.526 62.6722 105.265L61.4831 107.095L54.196 102.39L55.3852 100.559C56.1572 101.058 57.4924 100.588 59.3909 99.1491C61.2893 97.7103 64.5458 93.4401 69.1602 86.3385L89.7728 54.6158C93.4318 48.9846 95.5844 45.1119 96.2307 42.9978C96.904 40.8566 96.7748 39.4852 95.8431 38.8836L97.0323 37.0534Z" fill="white"/>
<path d="M87.517 28.9764C89.9593 30.5536 89.75 35.2593 86.889 43.0936C84.0484 50.8965 79.6703 59.35 73.7549 68.4538C67.6565 77.8392 61.6405 85.3459 55.7068 90.9738C49.7935 96.5705 45.649 98.6017 43.2732 97.0675C40.9573 95.572 41.1356 90.9794 43.808 83.2899C46.5008 75.5691 50.8964 67.016 56.9948 57.6306C63.1135 48.2139 69.1295 40.7072 75.0428 35.1105C80.9765 29.4826 85.1345 27.4379 87.517 28.9764ZM86.2967 30.9197C84.8327 29.9743 81.7234 32.2077 76.969 37.6201C72.2349 43.0013 66.778 50.4471 60.5983 59.9577C54.439 69.4369 49.8705 77.4565 46.8929 84.0163C43.9357 90.5449 43.1558 94.2604 44.5533 95.1628C46.0107 96.104 49.1065 93.884 53.8405 88.5029C58.595 83.0905 64.0519 75.6446 70.2112 66.1654C76.3909 56.6548 80.9594 48.6353 83.9166 42.1067C86.8942 35.5469 87.6876 31.8179 86.2967 30.9197Z" fill="white"/>
<path d="M36.5651 69.5533C33.5769 74.1521 31.578 77.6356 30.5684 80.0036C29.5654 82.3759 29.6628 83.9489 30.8607 84.7224L32.5677 85.8247L31.3785 87.6549L19.1802 79.7776L20.3694 77.9474L22.0764 79.0497C23.2742 79.8233 24.7506 79.2667 26.5056 77.38C28.2672 75.4976 30.6421 72.257 33.6304 67.6581L65.2505 18.9947L64.6016 18.5757C62.8381 17.4369 59.3361 19.8387 54.0956 25.781C48.8618 31.7277 43.6169 38.622 38.3608 46.4639L37.9914 46.2254L59.6407 12.9072L76.0514 23.5049L54.4022 56.8231L54.0328 56.5846C59.0627 48.5965 63.2262 41.0038 66.5235 33.8066C69.8274 26.6137 70.5976 22.4478 68.8341 21.3089L68.1853 20.8899L36.5651 69.5533Z" fill="white"/>
<path d="M50.2846 3.46808C51.7819 4.43502 52.2225 6.58484 51.6063 9.91754C51.0105 13.219 50.8523 14.9599 51.1318 15.1404C51.6043 15.4455 53.0922 13.8971 55.5956 10.4952L56.0049 10.7595L41.4297 33.1906L41.0205 32.9263C45.7453 24.608 48.6617 18.1641 49.7697 13.5946C50.9047 8.99815 50.7469 6.23148 49.2961 5.29463C48.0716 4.50389 46.3699 5.20365 44.191 7.39391C42.0323 9.55289 40.1602 11.8525 38.5747 14.2927C35.1392 19.5798 33.9432 24.2701 34.9867 28.3637C35.8317 32.9952 35.8735 37.2636 35.1121 41.1687C34.3574 45.0781 31.7541 50.4585 27.3023 57.3098C23.7043 62.8472 20.1831 67.1686 16.7389 70.2738C13.3217 73.352 10.7978 74.3647 9.16741 73.3118C7.70335 72.3664 7.23045 70.4844 7.74872 67.6658C8.28731 64.816 8.2039 63.1633 7.49849 62.7077C6.6733 62.1749 4.61759 64.0228 1.33137 68.2515L0.991973 68.0324L20.7812 37.5767L21.1605 37.8217C15.7959 46.6594 12.2214 54.2106 10.4371 60.4751C8.65948 66.744 8.62247 70.4285 10.3261 71.5286C11.4907 72.2807 13.1791 71.5723 15.3913 69.4036C17.6035 67.2348 19.5939 64.7895 21.3624 62.0677C24.2897 57.5627 25.7656 53.8082 25.7904 50.8042C25.8151 47.8001 25.6051 44.045 25.1605 39.5387C25.0754 36.064 25.6512 32.7497 26.8881 29.5958C28.152 26.4149 30.1764 22.6814 32.9613 18.3954C36.5187 12.9206 39.9308 8.83975 43.1976 6.15289C46.4915 3.43906 48.8538 2.54412 50.2846 3.46808Z" fill="white"/>
</svg>
