<svg width="50" height="44" viewBox="0 0 50 44" fill="none" xmlns="http://www.w3.org/2000/svg">
<path d="M39.8195 27.8387L35.5013 40.5811L36.0877 40.7786C37.2982 41.1863 38.4661 40.4345 39.5913 38.5231C40.7194 36.6128 41.8982 34.0673 43.1277 30.8867L43.3058 30.9467L39.3129 42.7294L32.6842 40.4969L32.9541 39.7005C33.4753 39.876 33.9739 39.5282 34.4498 38.6571C34.9286 37.787 35.507 36.3513 36.1852 34.3501L41.3892 18.9938C42.0674 16.9926 42.4808 15.5013 42.6294 14.52C42.781 13.5397 42.5961 12.9617 42.0748 12.7861L42.3447 11.9897L48.8127 14.1681L45.055 25.2565L44.9073 25.2067C46.115 20.8054 46.7358 17.8975 46.7698 16.4833C46.8114 15.0563 46.3587 14.1834 45.4117 13.8645L44.6429 13.6055L40.0825 27.0627C40.6616 27.2578 41.3469 26.6923 42.1383 25.3662C42.9297 24.0401 43.882 21.8203 44.9952 18.7067L45.1559 18.7609L38.8032 37.5069L38.6425 37.4528C39.6514 34.3041 40.2446 31.9633 40.4221 30.4305C40.5995 28.8977 40.3987 28.0337 39.8195 27.8387Z" fill="white"/>
<path d="M33.1964 8.90766L35.6289 9.72693L32.9517 31.5083L36.3772 21.4001C37.6828 17.5474 38.4071 14.9626 38.5501 13.6457C38.6931 12.3288 38.5575 11.6006 38.1434 11.4611L38.4133 10.6647L41.4105 11.6742L41.1407 12.4706C40.7352 12.334 40.2139 12.7727 39.5767 13.7867C38.9424 14.8016 37.9078 17.426 36.4731 21.6599L30.2588 39.9975L30.1111 39.9478L33.4093 13.0064L27.9839 29.0161C26.7383 32.6918 26.115 35.0072 26.1139 35.9624C26.1128 36.9176 26.3613 37.4791 26.8594 37.6468L26.5896 38.4432L23.4186 37.3753L23.6885 36.5789C24.0244 36.692 24.4784 36.3899 25.0506 35.6726C25.6228 34.9552 26.4325 33.0514 27.4798 29.9611L32.1578 16.1568C32.9882 13.7063 33.4234 12.0555 33.4634 11.2045C33.5109 10.3407 33.3319 9.84061 32.9265 9.70407L33.1964 8.90766Z" fill="white"/>
<path d="M28.8715 6.7914C29.9343 7.14934 30.3045 8.9273 29.9822 12.1253C29.6645 15.3096 28.8344 18.8826 27.4919 22.8442C26.1079 26.9283 24.5756 30.3027 22.895 32.9673C21.219 35.6184 19.8641 36.7698 18.8303 36.4216C17.8226 36.0822 17.4515 34.3495 17.7172 31.2235C17.9874 28.0838 18.8146 24.4719 20.1986 20.3878C21.5873 16.2901 23.1196 12.9157 24.7955 10.2647C26.4761 7.59999 27.8347 6.44224 28.8715 6.7914ZM28.6008 7.63303C27.9637 7.41846 27.0149 8.5474 25.7543 11.0199C24.4984 13.4787 23.1692 16.7774 21.7667 20.916C20.3689 25.0409 19.4263 28.4698 18.9389 31.2027C18.4562 33.9219 18.5189 35.384 19.1271 35.5888C19.7613 35.8024 20.7063 34.6798 21.9622 32.2209C23.2228 29.7485 24.552 26.4498 25.9498 22.3248C27.3523 18.1862 28.2949 14.7573 28.7776 12.0381C29.265 9.30523 29.206 7.83688 28.6008 7.63303Z" fill="white"/>
<path d="M13.7017 26.777C13.0235 28.7783 12.6087 30.269 12.4571 31.2494C12.3085 32.2307 12.4948 32.8092 13.0161 32.9847L13.7588 33.2349L13.489 34.0313L8.18082 32.2435L8.4507 31.4471L9.19349 31.6973C9.71475 31.8729 10.2133 31.5251 10.6892 30.654C11.168 29.7838 11.7465 28.3481 12.4246 26.3469L19.6008 5.17081L19.3185 5.07571C18.5511 4.81725 17.4716 6.04626 16.08 8.76275C14.6912 11.4802 13.3887 14.5528 12.1722 17.9805L12.0115 17.9263L16.9248 3.42773L24.066 5.83287L19.1527 20.3315L18.992 20.2773C20.11 16.8165 20.942 13.5854 21.488 10.5842C22.0369 7.58386 21.9277 5.95448 21.1603 5.69602L20.8779 5.60092L13.7017 26.777Z" fill="white"/>
<path d="M12.5303 0.787083C13.1819 1.00653 13.5514 1.768 13.6388 3.07151C13.7308 4.3614 13.8376 5.02683 13.9592 5.06779C14.1649 5.13704 14.5732 4.4176 15.1843 2.90949L15.3624 2.96947L12.0546 12.7305L11.8765 12.6705C12.849 9.11519 13.3245 6.43144 13.303 4.61927C13.289 2.79446 12.9664 1.77574 12.3351 1.56313C11.8023 1.38367 11.2332 1.80628 10.6278 2.83096C10.0271 3.84204 9.54677 4.87851 9.18692 5.94037C8.40725 8.24109 8.40739 10.1067 9.18733 11.5373C9.94442 13.1877 10.3668 14.7785 10.4545 16.3096C10.5451 17.8417 10.0852 20.0984 9.07487 23.0798C8.25829 25.4895 7.35455 27.4375 6.36366 28.9238C5.38028 30.3976 4.53385 31.0149 3.82436 30.776C3.18727 30.5614 2.83123 29.9031 2.75626 28.8009C2.6859 27.6852 2.49724 27.0756 2.19028 26.9722C1.83119 26.8513 1.23925 27.7364 0.414465 29.6276L0.266776 29.5778L4.75796 16.3249L4.92302 16.3805C3.76094 20.1905 3.14507 23.3502 3.07543 25.8598C3.00868 28.3702 3.34598 29.7503 4.08733 30C4.5941 30.1707 5.15741 29.7461 5.77725 28.7263C6.39709 27.7065 6.90769 26.6044 7.30906 25.42C7.9734 23.4596 8.16704 21.9171 7.89 20.7924C7.61295 19.6677 7.17665 18.2846 6.5811 16.6431C6.21816 15.353 6.11746 14.0602 6.27901 12.7647C6.44807 11.4565 6.84863 9.86994 7.48067 8.00486C8.28802 5.62246 9.17394 3.77463 10.1384 2.46138C11.1104 1.13549 11.9077 0.577389 12.5303 0.787083Z" fill="white"/>
</svg>
