<svg width="149" height="132" viewBox="0 0 149 132" fill="none" xmlns="http://www.w3.org/2000/svg">
<path d="M121.471 51.9725L135.333 89.7841L137.073 89.1501C140.665 87.8414 141.979 83.9053 141.014 77.342C140.058 70.7755 138.027 62.6317 134.921 52.9105L135.45 52.7179L148.268 87.6815L128.598 94.8482L127.732 92.485C129.278 91.9214 129.789 90.1785 129.263 87.2561C128.746 84.3307 127.398 79.8988 125.221 73.9604L108.516 28.3926C106.339 22.4543 104.502 18.2008 103.005 15.6323C101.517 13.0606 99.9991 12.0566 98.4523 12.6202L97.5859 10.2569L116.779 3.26398L128.841 36.1673L128.403 36.327C122.952 23.7967 118.938 15.8489 116.36 12.4836C113.776 9.07487 111.078 7.8824 108.269 8.90621L105.987 9.73748L120.627 49.6699C122.345 49.0437 122.883 46.4438 122.238 41.8703C121.594 37.2967 119.646 30.3361 116.395 20.9884L116.872 20.8147L137.265 76.4413L136.788 76.6151C133.227 67.3801 130.214 60.8078 127.748 56.8979C125.282 52.9881 123.189 51.3463 121.471 51.9725Z" fill="white"/>
<path d="M70.4408 20.1467L77.659 17.5167L112.336 73.3655L101.34 43.3708C97.1485 31.9384 93.9826 24.5515 91.8419 21.2101C89.7013 17.8687 88.0166 16.4218 86.7877 16.8696L85.9214 14.5063L94.8153 11.2658L95.6817 13.629C94.4786 14.0674 94.0859 16.0651 94.5035 19.6221C94.9297 23.1761 97.4458 31.2348 102.052 43.7982L122.001 98.213L121.562 98.3727L78.6393 29.3176L96.0558 76.8245C100.054 87.7317 102.95 94.3012 104.742 96.5331C106.535 98.765 108.17 99.6117 109.648 99.0732L110.514 101.436L101.105 104.865L100.238 102.502C101.235 102.138 101.728 100.585 101.715 97.842C101.703 95.0989 100.016 89.1422 96.6545 79.9721L81.6373 39.0096C78.9715 31.7381 76.8857 27.0716 75.3798 25.0101C73.8678 22.905 72.5102 22.0716 71.3072 22.51L70.4408 20.1467Z" fill="white"/>
<path d="M56.3655 23.2831C59.5191 22.1341 63.7243 25.5934 68.9808 33.661C74.2225 41.6883 78.9982 51.5796 83.3079 63.3352C87.7509 75.4543 90.5142 86.1934 91.5977 95.5525C92.6665 104.871 91.667 110.089 88.5992 111.207C85.6088 112.297 81.4868 108.945 76.2332 101.151C70.9648 93.3162 66.1091 83.3395 61.6661 71.2204C57.2083 59.0609 54.445 48.3218 53.3763 39.0031C52.2927 29.644 53.2891 24.404 56.3655 23.2831ZM57.3149 25.7535C55.4244 26.4423 55.3307 30.8497 57.0337 38.9756C58.7219 47.0612 61.8171 57.2443 66.3193 69.525C70.8067 81.7653 75.0491 91.5305 79.0464 98.8205C83.029 106.07 85.9225 109.366 87.7271 108.709C89.609 108.023 89.7059 103.637 88.0177 95.5518C86.3147 87.4258 83.2195 77.2427 78.7321 65.0024C74.2299 52.7217 69.9875 42.9566 66.0049 35.7069C62.0076 28.4169 59.1109 25.0991 57.3149 25.7535Z" fill="white"/>
<path d="M58.5052 98.2691C60.6822 104.207 62.5149 108.462 64.0032 111.034C65.5001 113.603 67.0219 114.605 68.5687 114.042L70.7728 113.238L71.6392 115.602L55.888 121.341L55.0216 118.977L57.2257 118.174C58.7725 117.611 59.2829 115.868 58.7571 112.946C58.2398 110.02 56.8927 105.588 54.7156 99.6498L31.6788 36.8123L30.8409 37.1176C28.5637 37.9473 28.3529 42.8323 30.2084 51.7728C32.0725 60.7102 34.8049 70.3157 38.4057 80.5894L37.9288 80.7631L22.1562 37.7403L43.347 30.0194L59.1195 73.0422L58.6426 73.216C54.7496 63.0488 50.6208 53.952 46.2561 45.9258C41.9 37.8964 38.5834 34.2966 36.3062 35.1263L35.4683 35.4315L58.5052 98.2691Z" fill="white"/>
<path d="M6.93467 39.783C8.86813 39.0785 11.1615 40.1662 13.8148 43.0461C16.4533 45.8856 17.953 47.2396 18.3139 47.1081C18.9241 46.8858 18.5256 44.4437 17.1184 39.7818L17.6469 39.5892L28.2656 68.5538L27.7371 68.7464C23.3271 58.6302 19.3944 51.4769 15.9392 47.2864C12.4778 43.0525 9.81039 41.2767 7.93708 41.9593C6.35594 42.5354 5.82145 44.5847 6.3336 48.1074C6.83094 51.5896 7.6572 54.9062 8.81237 58.0572C11.3152 64.8843 14.8211 69.2394 19.33 71.1227C24.1985 73.5618 28.1736 76.4866 31.2553 79.8973C34.3456 83.3049 37.5124 89.4321 40.7558 98.2791C43.3772 105.429 44.9277 111.665 45.4073 116.985C45.8807 122.262 45.0647 125.284 42.9594 126.051C41.0689 126.74 39.0007 125.868 36.7547 123.435C34.494 120.961 32.9082 119.891 31.9973 120.223C30.9317 120.611 31.213 123.782 32.841 129.738L32.4027 129.897L17.9853 90.5709L18.4751 90.3925C22.9211 101.457 27.4206 109.984 31.9734 115.972C36.5348 121.958 39.9154 124.55 42.1152 123.748C43.619 123.2 44.1364 121.157 43.6672 117.619C43.198 114.081 42.3192 110.554 41.0307 107.04C38.8981 101.223 36.4517 97.26 33.6916 95.1517C30.9316 93.0434 27.3142 90.6293 22.8395 87.9093C19.568 85.5752 16.9037 82.7451 14.8466 79.4191C12.7833 76.0495 10.7372 71.5975 8.70823 66.0631C6.1165 58.9936 4.71264 53.0254 4.49667 48.1585C4.27448 43.248 5.08715 40.4562 6.93467 39.783Z" fill="white"/>
</svg>
