<svg width="44" height="35" viewBox="0 0 44 35" fill="none" xmlns="http://www.w3.org/2000/svg">
<path d="M38.9459 18.5749L38.6016 32.5923L39.2467 32.608C40.5783 32.6405 41.5076 31.5318 42.0346 29.282C42.5648 27.0322 42.9483 24.1346 43.1852 20.589L43.3811 20.5937L43.0628 33.5553L35.771 33.3773L35.7925 32.5012C36.3659 32.5152 36.7543 32.0152 36.9577 31.0012C37.1643 29.9873 37.2946 28.3796 37.3487 26.1782L37.7635 9.28553C37.8176 7.08409 37.7663 5.47198 37.6097 4.4492C37.4563 3.42649 37.0929 2.90814 36.5195 2.89415L36.541 2.01807L43.6561 2.19171L43.3566 14.3895L43.1941 14.3855C43.0303 9.63134 42.7459 6.54504 42.3409 5.12659C41.9394 3.69324 41.2178 2.96386 40.1761 2.93843L39.3303 2.91779L38.9668 17.7213C39.6039 17.7369 40.1107 16.9625 40.4869 15.3983C40.8632 13.8341 41.1223 11.3305 41.2643 7.88747L41.4411 7.89179L40.9347 28.5134L40.7579 28.5091C40.7851 25.0633 40.6492 22.55 40.3501 20.9693C40.0511 19.3886 39.583 18.5905 38.9459 18.5749Z" fill="white"/>
<path d="M26.4767 1.77219L29.1526 1.8375L33.2473 24.3471L33.5203 13.2276C33.6244 8.98946 33.5433 6.19282 33.2769 4.8377C33.0106 3.48257 32.6496 2.79945 32.1941 2.78833L32.2156 1.91225L35.5127 1.99272L35.4912 2.8688C35.0452 2.85791 34.6624 3.45545 34.3427 4.66141C34.0262 5.86745 33.8107 8.7992 33.6964 13.4567L33.201 33.629L33.0386 33.625L27.9607 5.78686L27.5282 23.3983C27.429 27.4418 27.527 29.9392 27.8224 30.8904C28.1178 31.8416 28.5395 32.324 29.0874 32.3373L29.0659 33.2134L25.5776 33.1283L25.5991 32.2522C25.9687 32.2612 26.3269 31.8204 26.6739 30.9298C27.0209 30.0392 27.2362 27.8941 27.3196 24.4946L27.6925 9.30922C27.7587 6.61358 27.6797 4.83596 27.4553 3.97635C27.2346 3.10185 26.9012 2.65916 26.4552 2.64827L26.4767 1.77219Z" fill="white"/>
<path d="M21.5149 0.999326C22.684 1.02786 23.6044 2.68366 24.276 5.96672C24.948 9.23481 25.2305 13.0478 25.1235 17.4058C25.0132 21.8985 24.535 25.7304 23.6889 28.9015C22.8432 32.0576 21.8517 33.6218 20.7145 33.5941C19.6059 33.567 18.6987 31.9565 17.993 28.7625C17.2877 25.5535 16.9902 21.7027 17.1005 17.21C17.2112 12.7023 17.6894 8.87035 18.5351 5.71423C19.3812 2.54313 20.3744 0.971493 21.5149 0.999326ZM21.5066 1.92069C20.8058 1.90358 20.2116 3.32012 19.724 6.17031C19.2368 9.00552 18.9373 12.6994 18.8255 17.2521C18.7141 21.7897 18.8399 25.494 19.2029 28.365C19.5663 31.2209 20.0824 32.6571 20.7514 32.6734C21.4491 32.6904 22.0415 31.2813 22.5287 28.4461C23.0162 25.5959 23.3157 21.902 23.4271 17.3644C23.5389 12.8117 23.4132 9.10744 23.0498 6.25147C22.6868 3.38053 22.1724 1.93693 21.5066 1.92069Z" fill="white"/>
<path d="M12.615 25.5744C12.561 27.7758 12.6106 29.3879 12.764 30.4106C12.9206 31.4334 13.2856 31.9518 13.859 31.9658L14.6761 31.9857L14.6546 32.8618L8.81536 32.7193L8.83687 31.8432L9.65398 31.8632C10.2274 31.8771 10.6158 31.3771 10.8192 30.3631C11.0258 29.3492 11.1561 27.7415 11.2102 25.5401L11.7822 2.24532L11.4716 2.23774C10.6274 2.21714 9.93416 3.77362 9.39183 6.90717C8.85269 10.0408 8.50952 13.5014 8.36233 17.2889L8.18553 17.2846L8.57718 1.33545L16.4329 1.52717L16.0412 17.4764L15.8644 17.472C15.9033 13.6818 15.7288 10.2086 15.341 7.05236C14.9563 3.89618 14.3418 2.30779 13.4976 2.28719L13.187 2.27961L12.615 25.5744Z" fill="white"/>
<path d="M3.38332 0.0627403C4.10008 0.0802329 4.70423 0.724336 5.19578 1.99505C5.6877 3.25079 6.00056 3.88029 6.13435 3.88356C6.36053 3.88908 6.54377 3.04691 6.68408 1.35706L6.88 1.36184L6.61632 12.0995L6.42041 12.0947C6.28519 8.25529 5.92567 5.43688 5.34187 3.63944C4.76162 1.82711 4.12427 0.912476 3.4298 0.895528C2.84365 0.881223 2.40826 1.47748 2.12362 2.6843C1.83935 3.87614 1.68288 5.05611 1.65419 6.22422C1.59204 8.75512 2.17119 10.6124 3.39163 11.796C4.65753 13.2055 5.57172 14.6588 6.1342 16.156C6.69988 17.6533 6.94245 20.0418 6.86191 23.3215C6.79682 25.9722 6.50169 28.1903 5.97654 29.9756C5.45493 31.7461 4.80389 32.6218 4.02342 32.6027C3.32259 32.5856 2.76382 32.04 2.34714 30.9659C1.93081 29.8769 1.55382 29.3282 1.21614 29.32C0.821126 29.3104 0.506534 30.3741 0.272366 32.5112L0.1099 32.5072L0.467903 17.9283L0.649483 17.9327C0.675041 22.0841 1.04257 25.4197 1.75208 27.9395C2.46476 30.4593 3.22887 31.7292 4.04438 31.7491C4.60186 31.7627 5.03089 31.1663 5.33145 29.9599C5.63202 28.7534 5.79829 27.4988 5.83029 26.1959C5.88324 24.0394 5.59729 22.444 4.97244 21.4098C4.34758 20.3756 3.48399 19.1333 2.38166 17.6828C1.61995 16.5104 1.11847 15.2544 0.877241 13.9149C0.639561 12.5605 0.545913 10.8574 0.596294 8.80575C0.66065 6.18499 0.969128 4.07218 1.52173 2.46731C2.07788 0.847549 2.69841 0.0460251 3.38332 0.0627403Z" fill="white"/>
</svg>
