<svg width="1450" height="1034" viewBox="0 0 1450 1034" fill="none" xmlns="http://www.w3.org/2000/svg">
<path d="M196.419 215.715C221.208 215.715 242.575 220.332 260.533 229.554C278.478 238.776 289.905 243.393 294.8 243.393C301.581 243.154 309.199 235.958 317.641 221.792H324.971L326.645 329.61H320.975C309.636 292.962 293.876 266.127 273.708 249.105C253.527 232.083 230.212 223.578 203.762 223.578C186.092 223.578 169.72 231.076 154.659 246.073C139.599 261.069 132.069 295.164 132.069 348.356C132.069 392.389 138.762 423.325 152.162 441.177C165.549 459.03 186.928 467.95 216.275 467.95C234.945 467.95 250.23 463.634 262.131 455.004C274.02 446.373 279.977 433.44 279.977 416.179C279.977 392.615 275.219 377.984 265.716 372.272C256.212 366.56 242.176 363.704 223.618 363.704H216.787V356.923H376.847V363.704C360.949 363.704 348.998 367.302 340.993 374.499C332.989 381.695 328.992 397.975 328.992 423.325V467.95H322.661C314.656 459.734 306.039 455.633 296.823 455.633C286.933 455.633 275.032 458.904 261.145 465.446C247.246 471.988 231.024 475.259 212.454 475.259C169.108 475.259 134.728 462.703 109.328 437.592C83.9271 412.48 71.2268 383.029 71.2268 349.236C71.2268 309.732 84.4766 277.601 110.989 252.841C137.501 228.095 165.986 215.715 196.444 215.715H196.419Z" fill="white"/>
<path d="M931.808 255.065C958.045 280.944 971.158 311.201 971.158 345.836C971.158 380.472 957.758 412.037 930.971 437.325C904.184 462.612 870.953 475.256 831.267 475.256C791.58 475.256 759.573 462.612 732.224 437.325C704.875 412.037 691.213 381.541 691.213 345.836C691.213 310.132 704.6 279.46 731.4 254.172C758.187 228.884 791.48 216.24 831.267 216.24C871.053 216.24 905.57 229.186 931.808 255.065ZM831.778 223.563C807.327 223.563 787.821 234.898 773.26 257.569C758.699 280.24 751.418 309.666 751.418 345.836C751.418 382.007 758.973 411.257 774.096 433.928C789.207 456.599 808.438 467.934 831.791 467.934C855.144 467.934 875.587 456.599 890.148 433.928C904.709 411.257 911.989 381.893 911.989 345.836C911.989 309.78 904.434 280.24 889.311 257.569C874.188 234.898 855.019 223.563 831.791 223.563H831.778Z" fill="white"/>
<path d="M994.558 221.425H1116.27V228.382C1104.27 228.382 1096.51 230.168 1093 233.741C1089.5 237.314 1087.74 241.353 1087.74 245.882C1087.74 252.663 1089.33 260.664 1092.5 269.886C1095.67 279.108 1100.37 292.406 1106.59 309.78L1139.61 408.855L1186.79 283.008C1181.34 264.917 1174.72 251.292 1166.94 242.133C1159.16 232.974 1149.27 228.382 1137.26 228.382V221.425H1264.31V228.382C1248.42 228.382 1238.22 230.168 1233.72 233.741C1229.21 237.314 1226.96 241.718 1226.96 246.951C1226.96 252.55 1228.1 259.004 1230.38 266.313C1232.66 273.635 1235.96 283.423 1240.3 295.677L1278.81 408.855L1328.16 273.371C1329.72 268.251 1330.69 264.564 1331.09 262.3C1331.47 260.035 1331.67 257.595 1331.67 254.978C1331.45 245.215 1327.43 238.346 1319.58 234.358C1311.74 230.37 1302.21 228.382 1290.99 228.382V221.425H1384.86V228.382C1369.74 228.382 1357.96 235.075 1349.52 248.461C1341.06 261.847 1335.62 272.239 1333.18 279.611L1260.83 476.15H1253.5L1189.81 292.117L1121.45 476.15H1114.62L1039.59 259.796C1037.14 252.902 1032.53 245.932 1025.75 238.912C1018.97 231.892 1008.58 228.382 994.571 228.382V221.425H994.558Z" fill="white"/>
<path d="M0.500488 560.882H137.057V567.839C118.487 567.839 107.098 569.537 102.877 572.922C98.6564 576.318 96.3711 580.445 96.0464 585.326C96.0464 591.39 97.1329 597.014 99.2933 602.197C101.466 607.368 107.386 621.446 117.051 644.419L164.069 755.445L220.752 616.93C222.638 610.979 223.587 605.682 223.587 601.04C223.587 589.969 219.94 581.678 212.66 576.142C205.379 570.607 197.786 567.839 189.906 567.839V560.882H283.779V567.839C272.44 567.839 261.713 572.896 251.597 583.011C241.482 593.126 233.864 604.726 228.757 617.823L146.386 815.607H140.379L42.5102 590.686C39.4007 584.018 34.0933 578.545 26.588 574.268C19.0827 569.978 10.391 567.839 0.500488 567.839L0.500488 560.882Z" fill="white"/>
<path d="M531.33 562.141H685.333V569.098C663.579 569.098 648.493 571.979 640.101 577.754C631.709 583.529 627.501 600.45 627.501 628.543V727.794C627.501 758.617 633.857 779.942 646.595 791.793C659.32 803.632 679.101 809.557 705.925 809.557C728.529 809.557 747.436 803.342 762.646 790.9C777.856 778.47 785.462 757.963 785.462 729.404V654.787C785.462 617.9 780.729 594.399 771.288 584.284C761.834 574.168 747.973 569.111 729.703 569.111V562.154H837.437V569.111C823.912 569.111 812.773 574.345 804.006 584.824C795.24 595.292 790.857 615.17 790.857 644.445V734.588C790.857 761.838 782.402 782.37 765.506 796.171C748.61 809.972 725.157 816.879 695.161 816.879C652.065 816.879 622.281 809.268 605.796 794.032C589.325 778.797 581.083 760.416 581.083 738.878V629.097C581.083 600.651 576.674 583.554 567.858 577.779C559.041 572.005 546.865 569.124 531.343 569.124V562.166L531.33 562.141Z" fill="white"/>
<path d="M1336.97 752.602C1336.97 770.089 1340.1 782.884 1346.39 790.986C1352.67 799.076 1365.8 803.127 1385.82 803.127H1414.33V810.084H1210.59V803.127H1239.1C1259.11 803.127 1272.26 799.088 1278.54 790.986C1284.82 782.897 1287.95 770.102 1287.95 752.602V567.487H1277.11C1247.66 567.487 1224.84 579.979 1208.67 604.978C1192.5 629.963 1183.47 657.516 1181.57 687.622H1175.4V560.882H1449.5V687.622H1443.33C1441.44 657.516 1432.4 629.963 1416.23 604.978C1400.06 579.992 1377.24 567.487 1347.78 567.487H1336.94V752.602H1336.97Z" fill="white"/>
<path d="M657.142 360.292C645.141 405.155 631.055 433.626 614.87 445.704C598.698 457.781 576.882 463.82 549.433 463.82H503.914V283.536C503.914 283.335 503.914 283.133 503.914 282.932C503.964 263.608 518.712 241.931 536.67 235.162C544.188 232.332 552.805 230.08 562.708 228.029C562.845 228.029 562.97 228.029 563.107 228.029V227.953C568.664 226.809 574.596 225.714 580.978 224.607C492.675 209.271 487.093 196.841 480.224 0C473.343 196.841 467.774 209.271 379.471 224.607C395.743 227.438 409.205 230.155 420.382 233.967C441.012 240.987 454.948 260.475 455.073 282.416C455.073 282.794 455.073 283.171 455.073 283.561V403.696C455.073 425.713 452.288 441.238 446.731 450.283C441.174 459.329 426.888 463.845 403.885 463.845V470.626H663.823V360.305H657.155L657.142 360.292Z" fill="white"/>
<path d="M754.044 345.482C821.654 351.118 825.925 355.685 831.183 428.075C836.453 355.697 840.723 351.118 908.321 345.482C840.711 339.845 836.44 335.278 831.183 262.888C825.913 335.266 821.642 339.845 754.044 345.482Z" fill="white"/>
<path d="M878.973 804.626C871.643 806.311 863.563 807.834 854.622 809.394C942.924 824.73 948.507 837.16 955.375 1034C961.182 867.782 966.065 833.058 1020.63 817.043C1034.71 812.904 1049.35 810.992 1064.01 810.992H1138.91V700.67H1132.24C1120.24 745.533 1106.16 774.004 1089.98 786.081C1080.54 793.127 1069.19 798.121 1055.9 801.053C1037.97 805.016 1019.13 803.242 1002.78 794.813C1002.6 794.724 1002.43 794.636 1002.26 794.536C987.906 786.987 979.027 771.915 979.027 755.61V623.901C979.027 598.085 983.423 582.371 992.202 576.773C1000.98 571.174 1016.32 568.381 1038.22 568.381V561.776H878.998V568.381C899.678 568.381 913.365 572.244 920.096 579.981C926.815 587.718 930.187 602.35 930.187 623.888V744.023C930.187 744.174 930.187 744.325 930.187 744.476C930.137 772.205 911.33 796.335 884.668 803.217C883.431 803.531 882.17 803.846 880.884 804.16" fill="white"/>
<path d="M515.592 799.099C508.261 796.419 502.367 790.745 497.921 782.052L400.552 556.061H393.222L326.023 718.682C324.625 722.557 323.214 726.293 321.79 729.904C315.259 730.697 307.891 731.376 299.561 732.068C307.191 732.71 314.01 733.326 320.129 734.043C301.235 780.089 279.518 803.125 254.991 803.125V810.082H350.525V803.125C341.746 803.125 334.216 800.533 327.934 795.362C321.653 790.192 318.019 782.127 317.007 771.169C317.007 764.501 317.557 759.633 318.68 756.538L327.622 735.024C368.558 740.975 372.279 753.984 376.7 814.674C381.158 753.33 384.917 740.698 427.102 734.836C439.727 763.394 446.171 780.643 446.396 786.531C446.396 792.242 444.035 796.432 439.315 799.112C434.594 801.791 422.618 803.125 403.387 803.125V810.082H538.944V803.125C530.715 803.125 522.935 801.791 515.604 799.112L515.592 799.099ZM376.7 615.682L424.566 728.948C384.755 722.922 381.071 709.561 376.7 649.474C372.379 708.856 368.72 722.594 330.219 728.734L376.7 615.682Z" fill="white"/>
<path d="M985.81 682.967C1053.42 688.603 1057.69 693.17 1062.95 765.561C1068.22 693.183 1072.49 688.603 1140.09 682.967C1072.48 677.331 1068.21 672.764 1062.95 600.374C1057.68 672.751 1053.41 677.331 985.81 682.967Z" fill="white"/>
</svg>
