<svg width="1920" height="485" viewBox="0 0 1920 485" fill="none" xmlns="http://www.w3.org/2000/svg">
<g clip-path="url(#clip0_659_1145)">
<rect width="1921" height="485" fill="#0920B2"/>
<path d="M0 484.5C133.22 492.37 141.6 498.77 152 600C162.357 498.77 170.78 492.402 304 484.5C170.78 476.63 162.4 470.23 152 369C141.643 470.23 133.22 476.598 0 484.5Z" fill="white"/>
<path d="M395.334 484.5C473.338 488.759 478.245 492.222 484.334 547C490.398 492.222 495.33 488.776 573.334 484.5C495.33 480.241 490.423 476.778 484.334 422C478.27 476.778 473.338 480.224 395.334 484.5Z" fill="white"/>
<path d="M664.666 484.5C742.67 488.759 747.577 492.222 753.666 547C759.73 492.222 764.662 488.776 842.666 484.5C764.662 480.241 759.755 476.778 753.666 422C747.602 476.778 742.67 480.224 664.666 484.5Z" fill="white"/>
<path d="M934 484.5C1012 488.759 1016.91 492.222 1023 547C1029.06 492.222 1034 488.776 1112 484.5C1034 480.241 1029.09 476.778 1023 422C1016.94 476.778 1012 480.224 934 484.5Z" fill="white"/>
<path d="M1203.33 484.5C1281.34 488.759 1286.24 492.222 1292.33 547C1298.4 492.222 1303.33 488.776 1381.33 484.5C1303.33 480.241 1298.42 476.778 1292.33 422C1286.27 476.778 1281.34 480.224 1203.33 484.5Z" fill="white"/>
<path d="M1472.67 484.5C1550.67 488.759 1555.58 492.222 1561.67 547C1567.73 492.222 1572.66 488.776 1650.67 484.5C1572.66 480.241 1567.76 476.778 1561.67 422C1555.6 476.778 1550.67 480.224 1472.67 484.5Z" fill="white"/>
<path d="M1742 484.5C1820 488.759 1824.91 492.222 1831 547C1837.06 492.222 1842 488.776 1920 484.5C1842 480.241 1837.09 476.778 1831 422C1824.94 476.778 1820 480.224 1742 484.5Z" fill="white"/>
<path d="M0 -0.500003C133.22 7.3698 141.6 13.7701 152 115C162.357 13.7701 170.78 7.40246 304 -0.500003C170.78 -8.36981 162.4 -14.7701 152 -116C141.643 -14.7701 133.22 -8.40246 0 -0.500003Z" fill="white"/>
<path d="M395.334 -0.5C473.338 3.75855 478.245 7.22194 484.334 62C490.398 7.22194 495.33 3.77622 573.334 -0.5C495.33 -4.75855 490.423 -8.22194 484.334 -63C478.27 -8.22194 473.338 -4.77622 395.334 -0.5Z" fill="white"/>
<path d="M664.666 -0.5C742.67 3.75855 747.577 7.22194 753.666 62C759.73 7.22194 764.662 3.77622 842.666 -0.5C764.662 -4.75855 759.755 -8.22194 753.666 -63C747.602 -8.22194 742.67 -4.77622 664.666 -0.5Z" fill="white"/>
<path d="M934 -0.5C1012 3.75855 1016.91 7.22194 1023 62C1029.06 7.22194 1034 3.77622 1112 -0.5C1034 -4.75855 1029.09 -8.22194 1023 -63C1016.94 -8.22194 1012 -4.77622 934 -0.5Z" fill="white"/>
<path d="M1203.33 -0.5C1281.34 3.75855 1286.24 7.22194 1292.33 62C1298.4 7.22194 1303.33 3.77622 1381.33 -0.5C1303.33 -4.75855 1298.42 -8.22194 1292.33 -63C1286.27 -8.22194 1281.34 -4.77622 1203.33 -0.5Z" fill="white"/>
<path d="M1472.67 -0.5C1550.67 3.75855 1555.58 7.22194 1561.67 62C1567.73 7.22194 1572.66 3.77622 1650.67 -0.5C1572.66 -4.75855 1567.76 -8.22194 1561.67 -63C1555.6 -8.22194 1550.67 -4.77622 1472.67 -0.5Z" fill="white"/>
<path d="M1742 -0.5C1820 3.75855 1824.91 7.22194 1831 62C1837.06 7.22194 1842 3.77622 1920 -0.5C1842 -4.75855 1837.09 -8.22194 1831 -63C1824.94 -8.22194 1820 -4.77622 1742 -0.5Z" fill="white"/>
</g>
<defs>
<clipPath id="clip0_659_1145">
<rect width="1921" height="485" fill="white"/>
</clipPath>
</defs>
</svg>
