<svg width="446" height="453" viewBox="0 0 446 453" fill="none" xmlns="http://www.w3.org/2000/svg">
<g filter="url(#filter0_f_898_1728)">
<path d="M434.206 206.672L434.44 207.393L433.271 207.856L432.269 209.75L433.541 209.602L434.167 208.927L434.878 208.892L434.962 209.533L434.473 210.095L435.147 210.638L435.142 211.158L434.4 211.25L433.652 210.556L431.745 210.741L430.635 212.914L431.814 212.866L432.549 211.987L433.138 211.963L433.358 212.639L432.838 213.258L433.437 213.799L433.431 214.393L432.766 214.414L431.986 213.778L430.065 213.918L429.341 215.287L431.409 218.507L433.043 218.253L433.859 216.857L433.522 215.821L433.664 215.262L434.478 215.468L434.771 216.295L435.71 216.12L436.221 216.391L435.716 217.056L434.761 217.334L433.994 218.42L436.625 218.32L437.534 216.6L437.211 215.683L437.535 215.071L438.301 215.514L438.491 216.174L439.293 216.039L439.867 216.118L439.526 216.908L438.465 217.167L437.804 218.272L439.952 218.14L440.669 217.512L441.228 217.472L441.342 218.129L440.824 218.601L441.452 219.232L441.598 219.682L440.991 219.958L440.093 219.11L437.825 219.178L438.661 220.217L439.566 220.397L440.014 220.932L439.526 221.346L438.711 221.213L438.613 221.907L438.02 222.302L437.632 221.799L437.823 220.855L436.857 219.263L434.211 219.318L435.062 220.328L435.89 220.654L436.249 221.067L435.836 221.557L435.068 221.263L434.878 222.132L434.256 222.288L433.912 221.994L434.059 220.916L432.972 219.334L431.49 219.371L429.779 222.606L430.536 223.938L432.425 224.005L433.264 223.218L433.763 223.221L433.937 223.91L433.388 224.44L433.926 225.023L433.997 225.47L433.344 225.759L432.537 224.885L431.162 224.866L432.606 227.01L434.449 227.089L435.243 226.316L435.862 226.382L435.946 226.949L435.291 227.535L435.934 228.136L435.929 228.655L435.247 228.854L434.409 228.038L433.245 228.056L434.376 229.773L435.491 230.065L435.697 230.621L435.255 231.021L434.426 230.769L434.283 231.477L433.705 231.768L433.349 231.132L433.615 230.266L432.378 228.53L431.868 229.64L432.207 230.454L431.944 231.098L431.313 230.764L431.123 230.104L430.531 230.35L429.731 230.189L430.026 229.486L430.951 229.193L431.754 227.529L430.402 225.284L429.86 226.527L430.214 227.385L429.89 227.997L429.333 227.815L429.053 227.107L428.432 227.263L427.769 227.062L428.092 226.45L428.926 226.182L429.791 224.402L428.973 223.112L425.133 223.243L424.455 224.526L425.465 226.179L426.369 226.434L426.712 226.95L426.254 227.38L425.41 227.157L425.266 227.938L424.584 228.137L424.273 227.488L424.554 226.592L423.915 225.546L422.744 227.761L423.77 229.385L424.674 229.639L425.016 230.156L424.574 230.556L423.729 230.408L423.57 231.144L422.888 231.343L422.562 230.723L422.919 229.83L422.25 228.693L421.233 230.617L421.541 231.563L421.187 232.159L420.616 231.782L420.442 231.093L419.866 231.311L419.173 231.093L419.421 230.479L420.361 230.155L421.378 228.232L420.062 228.393L419.435 229.069L418.709 229.133L418.687 228.375L419.16 227.916L418.531 227.36L418.445 226.867L419.112 226.698L419.966 227.41L421.872 227.299L423.074 225.026L421.757 225.188L421.024 225.919L420.465 225.959L420.335 225.405L420.809 224.798L420.345 224.366L420.155 223.781L420.777 223.55L421.646 224.234L423.583 224.065L424.261 222.782L422.178 219.592L420.651 219.642L419.742 221.287L419.989 222.276L419.667 222.665L419.095 222.511L418.877 221.687L418.331 221.846L417.653 221.6L417.901 220.985L418.901 220.768L419.502 219.631L416.977 219.75L415.994 221.319L416.271 222.249L416.145 222.779L415.362 222.514L415.187 221.825L414.598 221.848L413.95 221.618L414.213 221.048L415.213 220.831L415.814 219.694L413.712 219.739L413.116 220.431L412.405 220.465L412.275 219.911L412.749 219.379L412.24 218.886L412.065 218.271L412.837 218.12L413.525 218.857L415.717 218.786L415.003 217.736L414.158 217.588L413.558 217.121L414.001 216.647L414.876 216.812L415.036 216.001L415.598 215.739L416.015 216.258L415.839 217.246L416.972 218.741L419.511 218.741L418.691 217.673L417.606 217.398L417.338 216.958L417.796 216.529L418.626 216.632L418.77 215.85L419.181 215.583L419.69 216.076L419.483 217.122L420.645 218.707L422.172 218.657L423.899 215.393L423.081 214.102L421.177 214.065L420.505 214.68L419.825 214.73L419.664 214.16L420.215 213.556L419.676 213.047L419.712 212.47L420.363 212.329L421.096 213.053L422.411 213.114L421.072 210.989L419.093 210.949L418.589 211.465L417.816 211.616L417.748 210.946L418.252 210.429L417.712 209.995L417.627 209.428L418.385 209.232L419.148 209.971L420.402 210L419.242 208.193L418.187 207.933L417.919 207.494L418.211 207.088L419.177 207.226L419.351 206.386L419.867 206.212L420.242 206.522L420.014 207.669L421.223 209.54L421.78 208.342L421.32 207.465L421.582 206.97L422.187 206.991L422.617 207.778L423.299 207.579L423.84 207.865L423.607 208.525L422.652 208.803L421.833 210.496L423.232 212.579L423.804 211.426L423.418 210.7L423.545 210.096L424.18 210.059L424.595 210.875L425.474 210.669L425.864 210.95L425.768 211.496L424.645 211.872L423.872 213.551L424.736 214.829L428.515 214.739L429.178 213.486L428.273 211.851L427.174 211.456L426.967 210.974L427.333 210.645L428.163 210.896L428.427 210.105L429.003 209.888L429.301 210.343L429.034 211.357L429.733 212.437L430.858 210.309L429.908 208.613L428.854 208.279L428.632 207.826L428.938 207.466L429.857 207.691L430.138 206.87L430.699 206.682L431.012 207.109L430.729 208.152L431.398 209.289L432.415 207.366L432.066 206.062L432.943 206.004L433.221 206.86L434.206 206.672Z" fill="url(#paint0_linear_898_1728)"/>
</g>
<g filter="url(#filter1_f_898_1728)">
<path d="M264.543 399.506L265.773 399.819L265.384 401.887L267.168 404.998L268.095 403.067L267.699 401.576L268.286 400.54L269.269 400.995L269.626 402.189L270.998 401.721L271.727 402.193L271.195 403.325L269.544 403.763L268.101 406.626L270.182 410.14L271.169 408.428L270.582 406.603L271.075 405.747L272.228 406.04L272.64 407.331L273.94 406.967L274.774 407.506L274.209 408.466L272.613 409L271.093 411.843L272.383 414.093L278.788 414.047L279.89 411.506L278.644 409.104L276.877 408.654L276.212 407.954L277.233 406.987L278.665 407.31L279.257 405.826L280.097 405.344L280.586 406.654L280.125 408.254L280.976 410.311L283.187 406.499L281.567 403.674L279.981 403.312L279.405 402.306L280.716 401.618L281.819 401.94L282.346 400.683L282.971 399.943L283.784 401.131L283.202 402.864L284.174 404.787L285.908 401.631L285.66 400.055L286.105 399.228L287.136 399.654L287.34 400.809L288.794 400.484L289.562 400.68L289.409 401.786L287.406 402.298L285.475 405.568L287.692 405.315L288.756 404.195L289.914 404.04L290.063 405.1L289.146 406.134L290.041 406.894L290.069 408.086L289.01 408.185L287.846 407.071L284.729 407.014L282.442 410.806L284.631 410.505L285.833 409.625L286.738 409.487L287.062 410.51L285.959 411.333L287.019 412.38L286.684 413.398L285.96 413.623L284.566 412.451L281.355 412.574L280.083 414.703L283.13 420.017L285.693 420.137L287.475 417.525L287.113 415.633L287.563 414.93L288.693 415.3L288.951 416.551L290.257 416.311L290.954 416.611L290.779 417.793L288.82 418.153L287.564 420.082L291.888 419.956L293.649 417.419L293.264 415.604L293.912 414.788L294.79 415.175L295.032 416.626L296.458 416.254L297.188 416.725L296.859 417.868L294.955 418.324L293.941 419.987L297.381 419.923L298.791 418.605L299.763 418.811L299.933 419.795L298.836 420.742L299.708 421.578L299.604 422.655L298.386 422.59L297.398 421.44L293.837 421.637L294.951 423.352L296.405 423.599L297.081 424.548L296.044 425.142L294.94 424.821L294.76 425.879L293.816 426.865L293.086 425.821L293.497 424.249L291.861 421.625L287.476 421.531L288.75 423.409L290.281 423.676L290.858 424.681L290.1 425.306L288.849 425.07L288.515 426.088L287.637 426.846L287.06 425.841L287.428 424.422L285.682 421.606L283.125 421.61L279.877 427.161L281.085 429.268L284.328 429.316L285.497 428.264L286.534 428.242L286.732 429.274L285.662 430.269L286.639 431.171L286.31 432.314L285.114 432.173L284.098 430.975L282.046 430.943L284.132 434.581L287.348 434.582L288.517 433.53L289.554 433.508L289.724 434.491L288.758 435.554L289.659 436.437L289.33 437.58L288.161 437.487L287.217 436.184L285.011 436.113L286.822 439.272L288.436 439.683L288.963 440.716L287.92 441.187L286.79 440.817L286.581 441.827L285.654 442.614L285.006 441.713L285.39 440.093L283.578 436.934L282.63 438.941L283.025 440.432L282.466 441.516L281.373 440.87L281.148 439.791L279.798 440.183L279.024 439.864L279.381 438.769L281.153 438.198L282.7 435.402L280.559 431.668L279.61 433.676L279.989 435.367L279.545 436.194L278.645 435.883L278.211 434.669L277.185 434.939L276.186 434.685L276.416 433.599L278.161 432.98L279.653 430.089L278.445 427.983L272.069 428.077L270.774 430.282L272.289 433.039L273.908 433.574L274.172 434.377L273.442 435.05L272.081 434.622L271.818 435.536L270.863 436.274L270.216 435.373L270.802 433.765L269.732 431.898L267.642 435.577L268.982 438.371L270.546 438.81L271.182 439.463L270.107 440.334L268.976 439.964L268.483 440.82L267.577 441.53L267.007 440.649L267.593 439.04L266.523 437.173L264.707 440.186L265.152 441.649L264.565 442.685L263.665 442.374L263.335 441.227L262.183 441.506L261.157 441.204L261.634 439.977L263.291 439.662L265.151 436.497L263.027 436.57L262.061 437.632L260.865 438.064L260.591 437.013L261.606 435.922L260.601 434.971L260.732 433.942L261.841 433.815L263.081 434.948L266.209 434.681L268.48 431.089L266.236 431.295L264.875 432.584L264.014 432.569L263.816 431.537L264.705 430.455L263.728 429.552L263.717 428.732L264.869 428.453L266.164 429.682L269.446 429.454L270.74 427.249L267.666 421.887L265.109 421.891L263.353 424.551L263.623 426.051L263.085 427.059L262.136 426.776L261.773 425.457L260.571 425.765L259.786 425.197L260.17 424.15L261.849 423.76L263.111 421.955L258.908 421.948L257.081 424.713L257.361 425.888L256.884 427.116L255.874 426.614L255.594 425.439L254.496 425.813L253.618 425.426L254.019 424.179L255.747 423.76L256.91 422.012L253.316 422.038L252.004 423.299L251.143 423.284L250.83 422.509L251.889 421.266L250.857 420.267L251.071 419.381L251.844 419.129L253.264 420.477L256.992 420.439L255.795 418.58L254.143 418.446L253.677 417.633L254.247 416.796L255.745 416.891L256.074 415.749L256.963 415.239L257.688 416.159L257.227 417.759L258.891 420.431L263.089 420.314L261.969 418.475L260.597 418.371L259.856 417.651L260.372 416.719L261.897 416.862L262.391 415.434L263.137 415.134L263.823 415.758L263.352 417.682L265.037 420.278L267.616 420.198L270.869 414.771L269.689 412.712L266.566 412.531L265.024 413.733L264.157 413.594L264.02 412.783L265.116 411.833L264.233 410.752L264.442 409.742L265.353 409.728L266.548 411.012L268.7 410.989L266.697 407.495L263.448 407.322L262.032 408.516L261.193 408.425L260.957 407.669L262.098 406.57L261.186 405.438L261.422 404.476L262.306 404.415L263.53 405.749L265.736 405.819L263.924 402.66L261.767 401.989L262.469 400.695L263.929 401.067L264.543 399.506Z" fill="url(#paint1_linear_898_1728)"/>
</g>
<g filter="url(#filter2_f_898_1728)">
<path d="M160.539 13.3246L161.886 13.5157L161.711 15.7656L163.973 18.8763L164.738 16.7101L164.144 15.1665L164.649 13.9936L165.75 14.3642L166.269 15.5967L167.677 14.9381L168.51 15.3567L168.074 16.6253L166.364 17.284L165.157 20.5035L167.783 24.0091L168.637 22.0702L167.799 20.1916L168.226 19.2221L169.489 19.4013L170.078 20.7294L171.422 20.1905L172.374 20.6689L171.883 21.7581L170.243 22.5125L168.952 25.72L170.588 27.9693L177.411 27.1775L178.292 24.3411L176.685 21.9242L174.749 21.6495L173.959 20.9796L174.935 19.8305L176.5 20.0095L176.96 18.3579L177.799 17.7474L178.472 19.0875L178.166 20.8467L179.312 22.9406L181.227 18.62L179.173 15.7964L177.44 15.5934L176.709 14.5884L178.027 13.7025L179.241 13.9175L179.657 12.5173L180.238 11.6555L181.241 12.8279L180.822 14.7428L182.082 16.6811L183.564 13.1145L183.118 11.4632L183.495 10.5296L184.645 10.8644L184.996 12.0729L186.508 11.5579L187.35 11.6773L187.315 12.874L185.239 13.6525L183.559 17.3628L185.893 16.8355L186.898 15.5189L188.115 15.2193L188.396 16.3322L187.539 17.5411L188.581 18.2469L188.749 19.5153L187.631 19.743L186.261 18.6903L182.931 18.9905L180.932 23.2992L183.231 22.7241L184.41 21.6467L185.36 21.3951L185.824 22.4481L184.743 23.4536L185.994 24.4465L185.756 25.5715L185.009 25.8948L183.387 24.8063L179.978 25.3099L178.868 27.7276L182.733 33.0398L185.479 32.8714L187.077 29.8792L186.471 27.9048L186.87 27.1029L188.118 27.3658L188.538 28.6701L189.903 28.2628L190.681 28.502L190.631 29.7825L188.584 30.3934L187.468 32.5956L192.064 31.96L193.648 29.0516L193.027 27.161L193.623 26.2154L194.604 26.5263L195.03 28.0459L196.508 27.4831L197.341 27.9017L197.123 29.1583L195.145 29.8649L194.256 31.7559L197.917 31.2882L199.268 29.7201L200.327 29.8275L200.623 30.8566L199.563 31.9937L200.59 32.7833L200.604 33.9441L199.298 34.0162L198.111 32.9037L194.336 33.527L195.723 35.226L197.302 35.3212L198.132 36.2544L197.096 37.0086L195.882 36.7936L195.812 37.9424L194.92 39.1035L194.021 38.0746L194.277 36.3513L192.229 33.7431L187.543 34.1513L189.118 36.0057L190.782 36.113L191.513 37.118L190.778 37.8721L189.416 37.7648L189.178 38.8898L188.33 39.7995L187.598 38.7945L187.826 37.2387L185.638 34.4391L182.912 34.739L180.093 41.0345L181.625 43.1403L185.088 42.8161L186.212 41.5593L187.316 41.4154L187.646 42.4923L186.621 43.6773L187.767 44.5266L187.549 45.7832L186.257 45.7716L185.035 44.6112L182.843 44.8153L185.489 48.4525L188.918 48.0805L190.042 46.8236L191.145 46.6797L191.441 47.7088L190.534 48.9536L191.597 49.791L191.378 51.0476L190.121 51.0839L188.963 49.8037L186.603 49.9839L188.901 53.1426L190.669 53.3933L191.35 54.4343L190.293 55.0569L189.045 54.794L188.94 55.895L188.043 56.8406L187.248 55.9553L187.469 54.1841L185.171 51.0255L184.392 53.2755L184.987 54.8191L184.516 56.0399L183.276 55.4778L182.911 54.353L181.517 54.9278L180.655 54.6767L180.908 53.468L182.732 52.6537L184.057 49.494L181.342 45.7611L180.563 48.0111L181.163 49.7701L180.785 50.7037L179.789 50.4766L179.186 49.2322L178.123 49.6394L177.029 49.4841L177.148 48.2994L178.937 47.4372L180.193 44.1818L178.661 42.0761L171.873 42.9157L170.748 45.4172L172.683 48.181L174.471 48.5634L174.846 49.389L174.146 50.191L172.645 49.8923L172.47 50.8976L171.538 51.7954L170.743 50.91L171.182 49.1268L169.824 47.2604L168.022 51.4254L169.774 54.2491L171.493 54.5358L172.247 55.1579L171.202 56.2113L169.954 55.9484L169.526 56.9178L168.643 57.7797L167.932 56.9063L168.372 55.1231L167.014 53.2567L165.427 56.6797L166.071 58.1873L165.565 59.3603L164.57 59.1332L164.085 57.9486L162.889 58.3797L161.76 58.1766L162.126 56.8123L163.857 56.2852L165.473 52.6947L163.217 53.0184L162.31 54.2633L161.085 54.862L160.67 53.7731L161.626 52.4923L160.445 51.5952L160.466 50.4822L161.633 50.2186L163.087 51.2832L166.391 50.6361L168.396 46.5428L166.027 47.0221L164.726 48.5543L163.805 48.6383L163.475 47.5614L164.297 46.3046L163.151 45.4553L163.044 44.5817L164.24 44.1506L165.764 45.3109L169.236 44.6876L170.361 42.1862L166.462 36.8261L163.735 37.1261L162.172 40.1662L162.633 41.7337L162.176 42.8707L161.131 42.6795L160.592 41.3155L159.346 41.7825L158.444 41.2682L158.732 40.1073L160.477 39.4965L161.613 37.4259L157.13 37.9059L155.503 41.0656L155.938 42.2861L155.571 43.6505L154.436 43.232L154.002 42.0115L152.875 42.5383L151.894 42.2275L152.176 40.8512L153.971 40.2045L155.008 38.2057L151.178 38.6496L149.926 40.1458L149.006 40.2298L148.583 39.4401L149.568 37.9919L148.352 37.0468L148.477 36.0774L149.273 35.7182L150.942 36.9919L154.913 36.5183L153.422 34.6759L151.645 34.7242L151.053 33.9107L151.564 32.9532L153.173 32.8809L153.391 31.6243L154.28 30.9778L155.159 31.8751L154.853 33.6343L156.937 36.2904L161.399 35.6788L159.992 33.8482L158.517 33.8965L157.644 33.2147L158.085 32.1614L159.728 32.137L160.089 30.5573L160.85 30.1502L161.654 30.7363L161.374 32.8426L163.472 35.4149L166.213 35.0313L169.052 28.8673L167.555 26.8094L164.205 26.9779L162.7 28.4383L161.76 28.3907L161.519 27.5412L162.577 26.4015L161.511 25.3512L161.616 24.2502L162.586 24.1302L164.009 25.3599L166.302 25.0865L163.76 21.5929L160.276 21.7854L158.905 23.2218L158 23.2221L157.66 22.4443L158.75 21.1396L157.647 20.039L157.787 18.9858L158.722 18.818L160.181 20.0981L162.542 19.9179L160.244 16.7593L157.867 16.2932L158.465 14.8331L160.065 15.06L160.539 13.3246Z" fill="url(#paint2_linear_898_1728)"/>
</g>
<g filter="url(#filter3_f_898_1728)">
<path d="M20.5425 180.506L21.7718 180.819L21.3827 182.887L23.1669 185.998L24.0939 184.067L23.6984 182.576L24.2853 181.54L25.2677 181.995L25.6247 183.189L26.9965 182.721L27.7265 183.193L27.1945 184.325L25.5428 184.763L24.1002 187.626L26.1809 191.14L27.1683 189.428L26.5807 187.603L27.0744 186.747L28.2268 187.04L28.6387 188.331L29.9392 187.967L30.7735 188.506L30.2085 189.466L28.6117 190L27.0923 192.843L28.3825 195.093L34.7866 195.047L35.889 192.506L34.6427 190.104L32.8756 189.654L32.2114 188.954L33.2318 187.987L34.6642 188.31L35.2565 186.826L36.096 186.344L36.5847 187.654L36.1242 189.254L36.9753 191.311L39.1859 187.499L37.5663 184.674L35.9803 184.312L35.4038 183.306L36.7152 182.618L37.8183 182.94L38.3448 181.683L38.9702 180.943L39.7827 182.131L39.2014 183.864L40.1732 185.787L41.9066 182.631L41.6592 181.055L42.1035 180.228L43.1353 180.654L43.3386 181.809L44.7928 181.484L45.5611 181.68L45.4077 182.786L43.4049 183.298L41.474 186.568L43.691 186.315L44.7553 185.195L45.9132 185.04L46.0616 186.1L45.1454 187.134L46.0401 187.894L46.0678 189.086L45.0087 189.185L43.845 188.071L40.728 188.014L38.4406 191.806L40.6301 191.505L41.8317 190.625L42.7371 190.487L43.0612 191.51L41.9583 192.333L43.0177 193.38L42.6832 194.398L41.9589 194.623L40.5647 193.451L37.3545 193.574L36.0818 195.703L39.1288 201.017L41.6916 201.137L43.4745 198.525L43.1118 196.633L43.5616 195.93L44.6922 196.3L44.9504 197.551L46.2564 197.311L46.9534 197.611L46.7781 198.793L44.8191 199.153L43.5629 201.082L47.8871 200.956L49.6481 198.419L49.2635 196.604L49.9108 195.788L50.789 196.175L51.0308 197.626L52.4575 197.254L53.1875 197.725L52.8585 198.868L50.9544 199.324L49.9395 200.987L53.3803 200.923L54.7903 199.605L55.7617 199.811L55.9321 200.795L54.8347 201.742L55.7075 202.578L55.6035 203.655L54.3852 203.59L53.3971 202.44L49.8357 202.637L50.9501 204.352L52.4044 204.599L53.0796 205.548L52.0426 206.142L50.9395 205.821L50.7587 206.879L49.815 207.865L49.0849 206.821L49.4961 205.249L47.8601 202.625L43.4754 202.531L44.749 204.409L46.2802 204.676L46.8566 205.681L46.0995 206.306L44.8482 206.07L44.5137 207.089L43.6359 207.846L43.0594 206.841L43.4268 205.422L41.681 202.606L39.1237 202.61L35.8764 208.161L37.0842 210.268L40.3274 210.316L41.496 209.264L42.5332 209.242L42.731 210.274L41.6612 211.269L42.6382 212.171L42.3092 213.314L41.1129 213.173L40.0973 211.975L38.0449 211.943L40.1312 215.581L43.3469 215.582L44.5156 214.53L45.5527 214.508L45.7231 215.491L44.7575 216.554L45.6577 217.437L45.3287 218.58L44.1598 218.487L43.2156 217.184L41.0096 217.113L42.8213 220.272L44.4347 220.683L44.9618 221.716L43.9193 222.187L42.7887 221.817L42.5804 222.827L41.6532 223.614L41.0054 222.713L41.3892 221.093L39.5775 217.934L38.6286 219.941L39.0241 221.432L38.4646 222.516L37.3724 221.87L37.1471 220.791L35.7973 221.183L35.0234 220.864L35.3798 219.769L37.1522 219.198L38.6991 216.402L36.558 212.668L35.6091 214.676L35.9881 216.367L35.5438 217.194L34.6438 216.883L34.21 215.669L33.1838 215.939L32.185 215.685L32.4152 214.599L34.1602 213.98L35.6521 211.089L34.4443 208.983L28.0676 209.077L26.7731 211.282L28.2883 214.039L29.9073 214.574L30.171 215.377L29.4413 216.05L28.0802 215.622L27.817 216.536L26.8624 217.274L26.2146 216.373L26.8014 214.765L25.7308 212.898L23.6409 216.577L24.9806 219.371L26.5447 219.81L27.1814 220.463L26.106 221.334L24.9755 220.964L24.4818 221.82L23.5765 222.53L23.0056 221.649L23.5924 220.04L22.5218 218.173L20.7061 221.186L21.151 222.649L20.5641 223.685L19.664 223.374L19.3345 222.227L18.1821 222.506L17.1558 222.204L17.633 220.977L19.2902 220.662L21.1497 217.497L19.026 217.57L18.0604 218.632L16.8642 219.064L16.5896 218.013L17.6045 216.922L16.6001 215.971L16.7315 214.942L17.84 214.815L19.0805 215.948L22.2084 215.681L24.4794 212.089L22.235 212.295L20.8744 213.584L20.0128 213.569L19.815 212.537L20.7037 211.455L19.7267 210.552L19.7155 209.732L20.8679 209.453L22.1633 210.682L25.4449 210.454L26.7394 208.249L23.665 202.887L21.1077 202.891L19.3523 205.551L19.6216 207.051L19.084 208.059L18.1346 207.776L17.7721 206.457L16.5704 206.765L15.7855 206.197L16.1694 205.15L17.8485 204.76L19.1102 202.955L14.9067 202.948L13.0799 205.713L13.3601 206.888L12.883 208.116L11.8731 207.614L11.593 206.439L10.4955 206.813L9.61738 206.426L10.0177 205.179L11.7462 204.76L12.9092 203.012L9.31473 203.038L8.00348 204.299L7.14191 204.284L6.82892 203.509L7.88774 202.266L6.85581 201.267L7.06961 200.381L7.84331 200.129L9.26265 201.477L12.9911 201.439L11.7943 199.58L10.1425 199.446L9.67583 198.633L10.2463 197.796L11.7445 197.891L12.0735 196.749L12.9624 196.239L13.687 197.159L13.2264 198.759L14.8898 201.431L19.0879 201.314L17.9679 199.475L16.596 199.371L15.855 198.651L16.3706 197.719L17.8962 197.862L18.3897 196.434L19.136 196.134L19.8221 196.758L19.3506 198.682L21.036 201.278L23.6153 201.198L26.868 195.771L25.6877 193.712L22.5651 193.531L21.0234 194.733L20.1563 194.594L20.0189 193.783L21.1148 192.833L20.2324 191.752L20.4407 190.742L21.3517 190.728L22.5469 192.012L24.6995 191.989L22.6956 188.495L19.4469 188.322L18.0313 189.516L17.1917 189.425L16.9555 188.669L18.0967 187.57L17.1855 186.438L17.4212 185.476L18.3047 185.415L19.5288 186.749L21.7349 186.819L19.9232 183.66L17.7663 182.989L18.4684 181.695L19.9282 182.067L20.5425 180.506Z" fill="url(#paint3_linear_898_1728)"/>
</g>
<defs>
<filter id="filter0_f_898_1728" x="409.265" y="203.204" width="35.1332" height="31.7543" filterUnits="userSpaceOnUse" color-interpolation-filters="sRGB">
<feFlood flood-opacity="0" result="BackgroundImageFix"/>
<feBlend mode="normal" in="SourceGraphic" in2="BackgroundImageFix" result="shape"/>
<feGaussianBlur stdDeviation="1.4" result="effect1_foregroundBlur_898_1728"/>
</filter>
<filter id="filter1_f_898_1728" x="248.03" y="396.428" width="54.7025" height="49.057" filterUnits="userSpaceOnUse" color-interpolation-filters="sRGB">
<feFlood flood-opacity="0" result="BackgroundImageFix"/>
<feBlend mode="normal" in="SourceGraphic" in2="BackgroundImageFix" result="shape"/>
<feGaussianBlur stdDeviation="1.4" result="effect1_foregroundBlur_898_1728"/>
</filter>
<filter id="filter2_f_898_1728" x="145.552" y="7.7293" width="57.8715" height="54.4311" filterUnits="userSpaceOnUse" color-interpolation-filters="sRGB">
<feFlood flood-opacity="0" result="BackgroundImageFix"/>
<feBlend mode="normal" in="SourceGraphic" in2="BackgroundImageFix" result="shape"/>
<feGaussianBlur stdDeviation="1.4" result="effect1_foregroundBlur_898_1728"/>
</filter>
<filter id="filter3_f_898_1728" x="4.0291" y="177.428" width="54.7025" height="49.057" filterUnits="userSpaceOnUse" color-interpolation-filters="sRGB">
<feFlood flood-opacity="0" result="BackgroundImageFix"/>
<feBlend mode="normal" in="SourceGraphic" in2="BackgroundImageFix" result="shape"/>
<feGaussianBlur stdDeviation="1.4" result="effect1_foregroundBlur_898_1728"/>
</filter>
<linearGradient id="paint0_linear_898_1728" x1="433.529" y1="206.314" x2="420.15" y2="231.61" gradientUnits="userSpaceOnUse">
<stop stop-color="white"/>
<stop offset="1" stop-color="white" stop-opacity="0"/>
</linearGradient>
<linearGradient id="paint1_linear_898_1728" x1="263.432" y1="400.143" x2="287.259" y2="441.693" gradientUnits="userSpaceOnUse">
<stop stop-color="white"/>
<stop offset="1" stop-color="white" stop-opacity="0"/>
</linearGradient>
<linearGradient id="paint2_linear_898_1728" x1="159.428" y1="14.1327" x2="189.647" y2="55.6734" gradientUnits="userSpaceOnUse">
<stop stop-color="white"/>
<stop offset="1" stop-color="white" stop-opacity="0"/>
</linearGradient>
<linearGradient id="paint3_linear_898_1728" x1="19.4314" y1="181.143" x2="43.2581" y2="222.693" gradientUnits="userSpaceOnUse">
<stop stop-color="white"/>
<stop offset="1" stop-color="white" stop-opacity="0"/>
</linearGradient>
</defs>
</svg>
