<svg width="957" height="1010" viewBox="0 0 957 1010" fill="none" xmlns="http://www.w3.org/2000/svg">
<path style="mix-blend-mode:lighten" opacity="0.66" d="M199.485 371.511C229.818 328.653 267.738 355.611 365.754 291.006C439.063 242.692 443.423 210.743 490.122 201.231C571.314 184.698 649.614 262.604 669.264 283.769C756.111 377.301 799.897 550.003 729.368 684.047C723.159 695.837 659.325 812.504 530.662 828.551C435.471 840.424 363.625 789.902 341.52 773.852C205.639 675.183 139.753 455.912 199.485 371.511Z" fill="url(#paint0_linear_640_1079)" fill-opacity="0.46"/>
<path style="mix-blend-mode:lighten" opacity="0.66" d="M287.421 469.141C304.597 436.055 333.573 449.954 395.959 393.738C442.619 351.697 442.684 329.246 474.39 317.056C529.512 295.866 591.417 339.827 607.102 351.966C676.427 405.612 723.077 518.802 686.345 619.331C683.11 628.173 649.432 715.967 561.133 742.581C495.806 762.271 440.958 736.318 424.036 727.986C320.011 676.762 253.599 534.297 287.421 469.141Z" fill="url(#paint1_linear_640_1079)"/>
<path d="M451.246 435.486C493.298 433.099 496.271 435.369 505.149 476.43C502.755 434.495 505.032 431.529 546.206 422.676C504.155 425.063 501.181 422.793 492.303 381.732C494.698 423.667 492.421 426.633 451.246 435.486Z" fill="white"/>
<path d="M518.072 447.293C533.365 458.364 533.752 459.995 525.152 476.776C536.254 461.526 537.889 461.14 554.717 469.716C539.424 458.645 539.037 457.014 547.637 440.233C536.535 455.483 534.9 455.869 518.072 447.293Z" fill="white"/>
<path d="M495.14 422.526C509.172 461.893 523.204 501.259 537.237 540.626C555.23 533.896 573.198 527.157 591.191 520.427C593.508 511.636 595.799 502.836 598.116 494.045C575.133 467.428 552.184 440.79 529.201 414.173C517.842 416.945 506.474 419.746 495.14 422.526Z" fill="url(#paint2_linear_640_1079)"/>
<path d="M396.365 484.186C432.451 527.038 468.513 569.882 504.6 612.734C515.485 588.679 526.386 564.663 537.272 540.608C523.239 501.242 509.207 461.875 495.175 422.509" fill="url(#paint3_linear_640_1079)"/>
<path d="M591.199 520.397C562.32 551.181 533.451 581.936 504.598 612.73C515.483 588.675 526.385 564.659 537.27 540.604C555.263 533.875 573.231 527.136 591.224 520.406L591.199 520.397Z" fill="url(#paint4_linear_640_1079)"/>
<defs>
<linearGradient id="paint0_linear_640_1079" x1="414.111" y1="207.777" x2="793.62" y2="849.135" gradientUnits="userSpaceOnUse">
<stop stop-color="white" stop-opacity="0.1"/>
<stop offset="1" stop-color="white"/>
</linearGradient>
<linearGradient id="paint1_linear_640_1079" x1="621.609" y1="391.828" x2="336.122" y2="577.029" gradientUnits="userSpaceOnUse">
<stop offset="0.43" stop-color="white" stop-opacity="0.1"/>
<stop offset="1" stop-color="white" stop-opacity="0.14"/>
</linearGradient>
<linearGradient id="paint2_linear_640_1079" x1="564.185" y1="530.528" x2="520.228" y2="413.136" gradientUnits="userSpaceOnUse">
<stop offset="0.02" stop-color="white"/>
<stop offset="1" stop-color="white" stop-opacity="0.1"/>
</linearGradient>
<linearGradient id="paint3_linear_640_1079" x1="492.321" y1="617.335" x2="428.695" y2="447.413" gradientUnits="userSpaceOnUse">
<stop offset="0.02" stop-color="white"/>
<stop offset="1" stop-color="white" stop-opacity="0.1"/>
</linearGradient>
<linearGradient id="paint4_linear_640_1079" x1="554.53" y1="594.037" x2="534.861" y2="541.507" gradientUnits="userSpaceOnUse">
<stop offset="0.02" stop-color="white"/>
<stop offset="1" stop-color="white" stop-opacity="0.1"/>
</linearGradient>
</defs>
</svg>
