<svg width="131" height="112" viewBox="0 0 131 112" fill="none" xmlns="http://www.w3.org/2000/svg">
<g opacity="0.86">
<path d="M68.2296 1.72775C74.3269 25.6373 80.4236 49.5293 86.5385 73.4383C98.5135 71.7708 110.488 70.1032 122.481 68.4351C124.598 63.7432 126.716 59.0512 128.815 54.3597C116.084 36.5936 103.352 18.8274 90.6023 1.06177C83.1446 1.2779 75.6874 1.51162 68.2302 1.74534L68.2296 1.72775Z" fill="url(#paint0_linear_755_11478)"/>
<path d="M0.612871 24.8352C20.5386 53.3267 40.4643 81.8183 60.4076 110.309C69.1172 98.0138 77.8273 85.7359 86.5369 73.4403C80.4397 49.5308 74.3429 25.6388 68.2281 1.72974" fill="url(#paint1_linear_755_11478)"/>
<path d="M122.462 68.4361C101.777 82.3992 81.0925 96.3623 60.4074 110.308C69.117 98.0122 77.8271 85.7343 86.5367 73.4387C98.5117 71.7712 110.487 70.1036 122.479 68.4355L122.462 68.4361Z" fill="url(#paint2_linear_755_11478)"/>
</g>
<defs>
<linearGradient id="paint0_linear_755_11478" x1="104.487" y1="71.1192" x2="94.326" y2="-1.72375" gradientUnits="userSpaceOnUse">
<stop offset="0.02" stop-color="#E882FF"/>
<stop offset="1" stop-color="white" stop-opacity="0.1"/>
</linearGradient>
<linearGradient id="paint1_linear_755_11478" x1="-25.2911" y1="-10.8469" x2="124.588" y2="630.163" gradientUnits="userSpaceOnUse">
<stop stop-color="#E057FF"/>
<stop offset="0.281352" stop-color="white"/>
</linearGradient>
<linearGradient id="paint2_linear_755_11478" x1="93.692" y1="105.837" x2="89.1476" y2="73.2591" gradientUnits="userSpaceOnUse">
<stop offset="0.02" stop-color="#E057FF"/>
<stop offset="1" stop-color="white" stop-opacity="0.1"/>
</linearGradient>
</defs>
</svg>
