<svg width="335" height="378" viewBox="0 0 335 378" fill="none" xmlns="http://www.w3.org/2000/svg">
<g style="mix-blend-mode:hard-light" opacity="0.86">
<path d="M308.966 156.615C243.117 151.112 177.314 145.603 111.459 140.053C110.554 107.687 109.649 75.3216 108.737 42.9091C120.19 35.2371 131.643 27.5651 143.103 19.9397C195.668 45.6884 248.234 71.4371 300.806 97.2324C303.542 117.024 306.231 136.823 308.92 156.621L308.966 156.615Z" fill="url(#paint0_linear_755_11498)"/>
<path d="M277.917 345.439C193.836 305.446 109.754 265.453 25.6664 225.413C54.278 196.96 82.843 168.513 111.455 140.059C177.304 145.562 243.106 151.071 308.962 156.621" fill="url(#paint1_linear_755_11498)"/>
<path d="M108.743 42.9603C81.0362 103.78 53.3296 164.599 25.6696 225.412C54.2813 196.958 82.8462 168.511 111.458 140.058C110.553 107.692 109.648 75.326 108.736 42.9136L108.743 42.9603Z" fill="url(#paint2_linear_755_11498)"/>
</g>
<path d="M212.501 91.6035C213.576 103.176 214.703 112.362 216.5 119.687C218.578 128.157 221.564 134.195 226.448 138.575C231.327 142.95 238.041 145.62 247.466 147.478C255.478 149.057 265.494 150.055 278.075 151C265.493 151.948 255.476 152.95 247.463 154.53C238.037 156.389 231.32 159.058 226.44 163.432C221.554 167.811 218.568 173.848 216.491 182.316C214.695 189.64 213.57 198.825 212.499 210.396C211.424 198.824 210.297 189.638 208.5 182.313C206.422 173.843 203.436 167.805 198.552 163.425C193.673 159.05 186.959 156.38 177.534 154.522C169.522 152.943 159.506 151.944 146.924 150.999C159.506 150.051 169.523 149.05 177.537 147.47C186.963 145.611 193.68 142.942 198.56 138.568C203.446 134.189 206.432 128.152 208.509 119.684C210.305 112.36 211.43 103.175 212.501 91.6035Z" fill="white" stroke="url(#paint3_linear_755_11498)"/>
<defs>
<linearGradient id="paint0_linear_755_11498" x1="109.626" y1="91.6221" x2="306.512" y2="86.1631" gradientUnits="userSpaceOnUse">
<stop offset="0.02" stop-color="#E882FF"/>
<stop offset="1" stop-color="white" stop-opacity="0.1"/>
</linearGradient>
<linearGradient id="paint1_linear_755_11498" x1="383.639" y1="398.033" x2="-1375.74" y2="286.387" gradientUnits="userSpaceOnUse">
<stop stop-color="#E057FF"/>
<stop offset="0.281352" stop-color="white"/>
</linearGradient>
<linearGradient id="paint2_linear_755_11498" x1="22.72" y1="135.524" x2="110.775" y2="133.082" gradientUnits="userSpaceOnUse">
<stop offset="0.02" stop-color="#E057FF"/>
<stop offset="1" stop-color="white" stop-opacity="0.1"/>
</linearGradient>
<linearGradient id="paint3_linear_755_11498" x1="212.5" y1="86" x2="212.5" y2="216" gradientUnits="userSpaceOnUse">
<stop stop-color="white"/>
<stop offset="0.697115" stop-color="white" stop-opacity="0"/>
<stop offset="1" stop-color="white" stop-opacity="0.924242"/>
</linearGradient>
</defs>
</svg>
