<svg width="135" height="149" viewBox="0 0 135 149" fill="none" xmlns="http://www.w3.org/2000/svg">
<g opacity="0.86">
<path d="M15.8222 91.4816C40.4949 91.1621 65.1505 90.8467 89.8272 90.5443C91.3259 102.542 92.8246 114.539 94.3274 126.553C90.346 129.816 86.3647 133.079 82.3792 136.325C61.9167 128.642 41.4543 120.96 20.9877 113.26C19.2602 106.002 17.5497 98.7397 15.8393 91.4776L15.8222 91.4816Z" fill="url(#paint0_linear_755_11516)"/>
<path d="M20.5816 20.1839C53.2695 32.029 85.9573 43.8742 118.649 55.7364C109.037 67.3396 99.4411 78.9388 89.8285 90.542C65.1558 90.8615 40.5003 91.1769 15.8235 91.4793" fill="url(#paint1_linear_755_11516)"/>
<path d="M94.324 126.535C102.438 102.934 110.552 79.3336 118.649 55.7371C109.036 67.3403 99.4406 78.9395 89.8279 90.5427C91.3266 102.54 92.8253 114.537 94.3281 126.552L94.324 126.535Z" fill="url(#paint2_linear_755_11516)"/>
</g>
<path d="M87.501 66.3301C87.9251 70.4246 88.3986 73.8097 89.0869 76.6123C90.0539 80.5494 91.4528 83.3941 93.7656 85.4658C96.0722 87.532 99.2299 88.7773 103.604 89.6387C106.581 90.2248 110.15 90.6346 114.439 91C110.15 91.3664 106.581 91.7789 103.604 92.3652C99.2282 93.227 96.0689 94.4715 93.7617 96.5371C91.4483 98.6084 90.0496 101.453 89.083 105.39C88.3951 108.192 87.9209 111.575 87.498 115.669C87.0739 111.575 86.6013 108.19 85.9131 105.388C84.9461 101.451 83.5472 98.6059 81.2344 96.5342C78.9278 94.468 75.7701 93.2227 71.3955 92.3613C68.4186 91.7752 64.8491 91.3645 60.5596 90.999C64.8493 90.6326 68.4191 90.2212 71.3965 89.6348C75.7718 88.773 78.9311 87.5285 81.2383 85.4629C83.5517 83.3916 84.9504 80.547 85.917 76.6104C86.605 73.8083 87.0781 70.4242 87.501 66.3301Z" fill="white" stroke="url(#paint3_linear_755_11516)"/>
<defs>
<linearGradient id="paint0_linear_755_11516" x1="92.2476" y1="108.48" x2="19.2645" y2="117.579" gradientUnits="userSpaceOnUse">
<stop offset="0.02" stop-color="#E882FF"/>
<stop offset="1" stop-color="white" stop-opacity="0.1"/>
</linearGradient>
<linearGradient id="paint1_linear_755_11516" x1="-20.6023" y1="4.43237" x2="637.339" y2="-17.2543" gradientUnits="userSpaceOnUse">
<stop stop-color="#E057FF"/>
<stop offset="0.281352" stop-color="white"/>
</linearGradient>
<linearGradient id="paint2_linear_755_11516" x1="122.973" y1="89.0411" x2="90.3324" y2="93.1108" gradientUnits="userSpaceOnUse">
<stop offset="0.02" stop-color="#E057FF"/>
<stop offset="1" stop-color="white" stop-opacity="0.1"/>
</linearGradient>
<linearGradient id="paint3_linear_755_11516" x1="87.5" y1="61" x2="87.5" y2="121" gradientUnits="userSpaceOnUse">
<stop stop-color="white"/>
<stop offset="0.697115" stop-color="white" stop-opacity="0"/>
<stop offset="1" stop-color="white" stop-opacity="0.924242"/>
</linearGradient>
</defs>
</svg>
