<svg width="308" height="307" viewBox="0 0 308 307" fill="none" xmlns="http://www.w3.org/2000/svg">
<path style="mix-blend-mode:lighten" opacity="0.66" d="M37.9776 117.088C54.7531 79.7069 87.655 79.2535 130.639 67.4317C162.787 58.592 167.608 48.3502 185.959 49.8249C217.865 52.3901 239.245 86.2247 244.449 95.2549C267.451 135.162 266.488 197.234 226.799 234.998C223.306 238.319 187.85 270.944 138.305 263.486C101.65 257.969 79.9346 233.928 73.3041 226.362C32.5463 179.853 19.6105 158.015 37.9776 117.088Z" fill="url(#paint0_linear_640_1046)"/>
<path d="M102.969 130.437C137.73 121.076 172.468 111.713 207.229 102.352C205.791 127.908 204.343 153.45 202.919 178.996C191.983 168.66 181.047 158.323 170.111 147.987C147.734 142.142 125.346 136.283 102.969 130.437Z" fill="url(#paint1_linear_640_1046)"/>
<path d="M102.969 130.437C113.283 153.541 123.584 176.654 133.898 199.758C145.962 182.5 158.048 165.245 170.112 147.988C147.734 142.142 125.346 136.283 102.969 130.437Z" fill="url(#paint2_linear_640_1046)"/>
<path d="M202.919 178.996C179.91 185.905 156.911 192.826 133.902 199.734C145.965 182.477 158.052 165.222 170.115 147.964C181.05 158.3 191.986 168.637 202.922 178.973L202.919 178.996Z" fill="url(#paint3_linear_640_1046)"/>
<path d="M207.229 102.352C194.855 117.572 182.485 132.768 170.111 147.987C181.047 158.324 191.983 168.66 202.919 178.996C204.343 153.451 205.791 127.908 207.229 102.352Z" fill="url(#paint4_linear_640_1046)"/>
<defs>
<linearGradient id="paint0_linear_640_1046" x1="156.983" y1="44.4387" x2="141.927" y2="262.106" gradientUnits="userSpaceOnUse">
<stop offset="0.43" stop-color="white" stop-opacity="0.1"/>
<stop offset="1" stop-color="white" stop-opacity="0.35"/>
</linearGradient>
<linearGradient id="paint1_linear_640_1046" x1="133.042" y1="169.815" x2="212.442" y2="109.177" gradientUnits="userSpaceOnUse">
<stop offset="0.02" stop-color="white"/>
<stop offset="1" stop-color="white" stop-opacity="0.1"/>
</linearGradient>
<linearGradient id="paint2_linear_640_1046" x1="111.46" y1="170.378" x2="159.305" y2="133.838" gradientUnits="userSpaceOnUse">
<stop offset="0.02" stop-color="white"/>
<stop offset="1" stop-color="white" stop-opacity="0.1"/>
</linearGradient>
<linearGradient id="paint3_linear_640_1046" x1="135.66" y1="202.064" x2="189.268" y2="161.123" gradientUnits="userSpaceOnUse">
<stop offset="0.02" stop-color="white"/>
<stop offset="1" stop-color="white" stop-opacity="0.1"/>
</linearGradient>
<linearGradient id="paint4_linear_640_1046" x1="179.406" y1="160.158" x2="224.863" y2="125.442" gradientUnits="userSpaceOnUse">
<stop offset="0.02" stop-color="white"/>
<stop offset="1" stop-color="white" stop-opacity="0.1"/>
</linearGradient>
</defs>
</svg>
