<svg width="69" height="59" viewBox="0 0 69 59" fill="none" xmlns="http://www.w3.org/2000/svg">
<g opacity="0.86">
<path d="M32.716 0.909517C29.5063 13.4959 26.2969 26.0731 23.0779 38.6593C16.7741 37.7814 10.4702 36.9036 4.1571 36.0255C3.04251 33.5556 1.92794 31.0856 0.822616 28.6159C7.52489 19.2635 14.2272 9.9111 20.9387 0.558937C24.8646 0.67271 28.7902 0.795743 32.7158 0.918777L32.716 0.909517Z" fill="url(#paint0_linear_755_11490)"/>
<path d="M68.311 13.0736C57.8218 28.0721 47.3325 43.0706 36.834 58.0688C32.2491 51.5962 27.6639 45.1328 23.0791 38.6602C26.2888 26.0738 29.4982 13.4967 32.7172 0.910489" fill="url(#paint1_linear_755_11490)"/>
<path d="M4.16704 36.0261C15.0558 43.3766 25.9445 50.727 36.8335 58.0682C32.2487 51.5956 27.6635 45.1322 23.0786 38.6596C16.7748 37.7818 10.4709 36.904 4.15777 36.0259L4.16704 36.0261Z" fill="url(#paint2_linear_755_11490)"/>
</g>
<defs>
<linearGradient id="paint0_linear_755_11490" x1="13.6295" y1="37.4385" x2="18.9785" y2="-0.907415" gradientUnits="userSpaceOnUse">
<stop offset="0.02" stop-color="#E882FF"/>
<stop offset="1" stop-color="white" stop-opacity="0.1"/>
</linearGradient>
<linearGradient id="paint1_linear_755_11490" x1="81.9474" y1="-5.71009" x2="3.04835" y2="331.729" gradientUnits="userSpaceOnUse">
<stop stop-color="#E057FF"/>
<stop offset="0.281352" stop-color="white"/>
</linearGradient>
<linearGradient id="paint2_linear_755_11490" x1="19.3119" y1="55.7148" x2="21.7041" y2="38.5651" gradientUnits="userSpaceOnUse">
<stop offset="0.02" stop-color="#E057FF"/>
<stop offset="1" stop-color="white" stop-opacity="0.1"/>
</linearGradient>
</defs>
</svg>
