<svg width="135" height="149" viewBox="0 0 135 149" fill="none" xmlns="http://www.w3.org/2000/svg">
<g style="mix-blend-mode:screen" opacity="0.86">
<path d="M15.8222 91.4816C40.4949 91.1621 65.1505 90.8467 89.8272 90.5443C91.3259 102.542 92.8246 114.539 94.3274 126.553C90.346 129.816 86.3647 133.079 82.3792 136.325C61.9167 128.642 41.4543 120.96 20.9877 113.26C19.2602 106.002 17.5497 98.7397 15.8393 91.4776L15.8222 91.4816Z" fill="url(#paint0_linear_755_11522)"/>
<path d="M20.5816 20.1839C53.2695 32.029 85.9573 43.8742 118.649 55.7364C109.037 67.3396 99.4411 78.9388 89.8285 90.542C65.1558 90.8615 40.5003 91.1769 15.8235 91.4793" fill="url(#paint1_linear_755_11522)"/>
<path d="M94.324 126.535C102.438 102.934 110.552 79.3336 118.649 55.7371C109.036 67.3403 99.4406 78.9395 89.8279 90.5427C91.3266 102.54 92.8253 114.537 94.3281 126.552L94.324 126.535Z" fill="url(#paint2_linear_755_11522)"/>
</g>
<path d="M86 59.4004C86.416 63.4629 86.8816 66.8244 87.5557 69.6104C88.508 73.5464 89.8851 76.3916 92.1641 78.4639C94.4376 80.5312 97.5507 81.776 101.861 82.6377C104.794 83.224 108.311 83.6345 112.536 84C108.311 84.3665 104.794 84.7787 101.86 85.3652C97.5489 86.2273 94.4353 87.4732 92.1611 89.54C89.8816 91.6118 88.5036 94.4553 87.5518 98.3906C86.8781 101.176 86.4138 104.537 85.999 108.599C85.5831 104.537 85.1183 101.175 84.4443 98.3896C83.492 94.4536 82.1149 91.6084 79.8359 89.5361C77.5624 87.4688 74.4493 86.224 70.1387 85.3623C67.2055 84.776 63.6887 84.3645 59.4629 83.999C63.6889 83.6325 67.206 83.2213 70.1396 82.6348C74.4511 81.7727 77.5647 80.5268 79.8389 78.46C82.1184 76.3882 83.4964 73.5447 84.4482 69.6094C85.1219 66.8239 85.5852 63.4626 86 59.4004Z" fill="white" stroke="url(#paint3_linear_755_11522)"/>
<defs>
<linearGradient id="paint0_linear_755_11522" x1="92.2476" y1="108.48" x2="19.2645" y2="117.579" gradientUnits="userSpaceOnUse">
<stop offset="0.02" stop-color="#E882FF"/>
<stop offset="1" stop-color="white" stop-opacity="0.1"/>
</linearGradient>
<linearGradient id="paint1_linear_755_11522" x1="-20.6023" y1="4.43237" x2="637.339" y2="-17.2543" gradientUnits="userSpaceOnUse">
<stop stop-color="#E057FF"/>
<stop offset="0.281352" stop-color="white"/>
</linearGradient>
<linearGradient id="paint2_linear_755_11522" x1="122.973" y1="89.0411" x2="90.3324" y2="93.1108" gradientUnits="userSpaceOnUse">
<stop offset="0.02" stop-color="#E057FF"/>
<stop offset="1" stop-color="white" stop-opacity="0.1"/>
</linearGradient>
<linearGradient id="paint3_linear_755_11522" x1="86" y1="54" x2="86" y2="114" gradientUnits="userSpaceOnUse">
<stop stop-color="white"/>
<stop offset="0.697115" stop-color="white" stop-opacity="0"/>
<stop offset="1" stop-color="white" stop-opacity="0.924242"/>
</linearGradient>
</defs>
</svg>
