<svg width="91" height="78" viewBox="0 0 91 78" fill="none" xmlns="http://www.w3.org/2000/svg">
<g opacity="0.86">
<path d="M42.9564 1.1942C38.7421 17.7203 34.528 34.2342 30.3015 50.7599C22.0245 49.6073 13.7475 48.4547 5.45831 47.3018C3.99485 44.0587 2.5314 40.8157 1.0801 37.573C9.88024 25.2932 18.6804 13.0133 27.4927 0.733888C32.6474 0.883273 37.8017 1.04482 42.9561 1.20636L42.9564 1.1942Z" fill="url(#paint0_linear_755_11486)"/>
<path d="M89.6932 17.1657C75.9207 36.8588 62.1482 56.552 48.3635 76.2447C42.3436 67.7462 36.3232 59.2597 30.3032 50.7612C34.5176 34.2351 38.7316 17.7212 42.9581 1.19545" fill="url(#paint1_linear_755_11486)"/>
<path d="M5.47119 47.3026C19.7682 56.9538 34.0652 66.6049 48.3626 76.244C42.3426 67.7454 36.3222 59.259 30.3022 50.7604C22.0252 49.6078 13.7482 48.4552 5.45902 47.3022L5.47119 47.3026Z" fill="url(#paint2_linear_755_11486)"/>
</g>
<defs>
<linearGradient id="paint0_linear_755_11486" x1="17.8956" y1="49.157" x2="24.9189" y2="-1.19144" gradientUnits="userSpaceOnUse">
<stop offset="0.02" stop-color="#E882FF"/>
<stop offset="1" stop-color="white" stop-opacity="0.1"/>
</linearGradient>
<linearGradient id="paint1_linear_755_11486" x1="107.598" y1="-7.49742" x2="4.00272" y2="435.563" gradientUnits="userSpaceOnUse">
<stop stop-color="#E057FF"/>
<stop offset="0.281352" stop-color="white"/>
</linearGradient>
<linearGradient id="paint2_linear_755_11486" x1="25.3565" y1="73.1539" x2="28.4975" y2="50.6363" gradientUnits="userSpaceOnUse">
<stop offset="0.02" stop-color="#E057FF"/>
<stop offset="1" stop-color="white" stop-opacity="0.1"/>
</linearGradient>
</defs>
</svg>
