<svg width="251" height="242" viewBox="0 0 251 242" fill="none" xmlns="http://www.w3.org/2000/svg">
<g opacity="0.86">
<path d="M163.301 47.7114C136.916 74.2645 110.544 100.795 84.136 127.334C69.7692 115.931 55.4024 104.527 41.013 93.1098C41.8597 85.3466 42.7065 77.5833 43.5758 69.8343C73.9008 56.4209 104.226 43.0075 134.573 29.6083C144.154 35.6351 153.72 41.6845 163.287 47.734L163.301 47.7114Z" fill="url(#paint0_linear_755_11510)"/>
<path d="M233.878 129.995C185.889 151.885 137.9 173.775 89.8892 195.651C87.9765 172.873 86.0497 150.116 84.1371 127.338C110.523 100.784 136.894 74.2539 163.302 47.7149" fill="url(#paint1_linear_755_11510)"/>
<path d="M41.0363 93.126C57.3157 127.308 73.5951 161.49 89.8887 195.65C87.9761 172.871 86.0493 150.115 84.1366 127.336C69.7699 115.933 55.4031 104.529 41.0137 93.1118L41.0363 93.126Z" fill="url(#paint2_linear_755_11510)"/>
</g>
<path d="M86.6904 89.5635C87.296 95.7562 87.9564 100.781 88.957 104.871C90.2372 110.103 92.0832 113.86 95.1211 116.592C98.153 119.318 102.314 120.97 108.113 122.116C112.506 122.984 117.875 123.567 124.459 124.096C117.875 124.626 112.505 125.211 108.111 126.08C102.311 127.227 98.1489 128.878 95.1162 131.604C92.0775 134.334 90.2308 138.09 88.9512 143.321C87.951 147.41 87.2921 152.435 86.6885 158.627C86.0829 152.435 85.4225 147.41 84.4219 143.32C83.1417 138.088 81.2957 134.331 78.2578 131.6C75.2259 128.874 71.0647 127.221 65.2656 126.075C60.8723 125.207 55.5029 124.623 48.9189 124.095C55.5033 123.565 60.8735 122.98 65.2676 122.111C71.0674 120.965 75.23 119.313 78.2627 116.588C81.3014 113.857 83.1481 110.101 84.4277 104.87C85.4279 100.781 86.0868 95.756 86.6904 89.5635Z" fill="white" stroke="url(#paint3_linear_755_11510)"/>
<defs>
<linearGradient id="paint0_linear_755_11510" x1="62.4636" y1="110.478" x2="131.852" y2="23.0994" gradientUnits="userSpaceOnUse">
<stop offset="0.02" stop-color="#E882FF"/>
<stop offset="1" stop-color="white"/>
</linearGradient>
<linearGradient id="paint1_linear_755_11510" x1="295.218" y1="103.311" x2="-394.416" y2="825.661" gradientUnits="userSpaceOnUse">
<stop stop-color="#E057FF"/>
<stop offset="0.281352" stop-color="white"/>
</linearGradient>
<linearGradient id="paint2_linear_755_11510" x1="49.8294" y1="164.169" x2="80.8625" y2="125.09" gradientUnits="userSpaceOnUse">
<stop offset="0.02" stop-color="#E057FF"/>
<stop offset="1" stop-color="white" stop-opacity="0.1"/>
</linearGradient>
<linearGradient id="paint3_linear_755_11510" x1="86.6895" y1="84.0957" x2="86.6895" y2="164.096" gradientUnits="userSpaceOnUse">
<stop stop-color="white"/>
<stop offset="0.697115" stop-color="white" stop-opacity="0"/>
<stop offset="1" stop-color="white" stop-opacity="0.924242"/>
</linearGradient>
</defs>
</svg>
