<svg width="200" height="221" viewBox="0 0 200 221" fill="none" xmlns="http://www.w3.org/2000/svg">
<g opacity="0.86">
<path d="M18.9051 99.7884C52.3732 115.385 85.8156 130.976 119.278 146.598C113.505 163.745 107.732 180.892 101.954 198.064C94.4668 199.876 86.9801 201.689 79.4991 203.475C56.9047 179.826 34.3103 156.177 11.7215 132.503C14.1075 121.596 16.5191 110.695 18.9308 99.794L18.9051 99.7884Z" fill="url(#paint0_linear_755_11504)"/>
<path d="M71.6352 6.76553C108.006 43.9674 144.377 81.1693 180.743 118.397C160.247 127.795 139.777 137.198 119.281 146.596C85.813 130.999 52.3706 115.408 18.908 99.7862" fill="url(#paint1_linear_755_11504)"/>
<path d="M101.961 198.036C128.23 171.492 154.498 144.947 180.742 118.397C160.246 127.795 139.776 137.198 119.28 146.596C113.507 163.743 107.734 180.889 101.955 198.062L101.961 198.036Z" fill="url(#paint2_linear_755_11504)"/>
</g>
<path d="M53 95.2969C53.3671 98.762 53.7808 101.651 54.3701 104.062C55.2373 107.611 56.4935 110.182 58.5752 112.056C60.6509 113.924 63.4896 115.047 67.4111 115.823C69.9423 116.324 72.951 116.683 76.5332 117C72.9506 117.317 69.9419 117.679 67.4102 118.18C63.4879 118.956 60.6485 120.079 58.5723 121.947C56.4899 123.821 55.233 126.392 54.3662 129.939C53.7773 132.35 53.3651 135.238 52.999 138.702C52.6319 135.237 52.2191 132.349 51.6299 129.938C50.7627 126.389 49.5065 123.818 47.4248 121.944C45.3491 120.076 42.5104 118.953 38.5889 118.177C36.0574 117.676 33.0485 117.316 29.4658 116.999C33.0488 116.682 36.0579 116.321 38.5898 115.82C42.5121 115.044 45.3515 113.921 47.4277 112.053C49.5101 110.179 50.767 107.608 51.6338 104.061C52.2227 101.65 52.6339 98.7614 53 95.2969Z" fill="white" stroke="url(#paint3_linear_755_11504)"/>
<defs>
<linearGradient id="paint0_linear_755_11504" x1="110.891" y1="172.348" x2="6.59278" y2="137.206" gradientUnits="userSpaceOnUse">
<stop offset="0.02" stop-color="#E882FF"/>
<stop offset="1" stop-color="white" stop-opacity="0.1"/>
</linearGradient>
<linearGradient id="paint1_linear_755_11504" x1="26.3483" y1="-41.2214" x2="927.39" y2="356.937" gradientUnits="userSpaceOnUse">
<stop stop-color="#E057FF"/>
<stop offset="0.281352" stop-color="white"/>
</linearGradient>
<linearGradient id="paint2_linear_755_11504" x1="164.937" y1="166.102" x2="118.291" y2="150.386" gradientUnits="userSpaceOnUse">
<stop offset="0.02" stop-color="#E057FF"/>
<stop offset="1" stop-color="white" stop-opacity="0.1"/>
</linearGradient>
<linearGradient id="paint3_linear_755_11504" x1="53" y1="90" x2="53" y2="144" gradientUnits="userSpaceOnUse">
<stop stop-color="white"/>
<stop offset="0.697115" stop-color="white" stop-opacity="0"/>
<stop offset="1" stop-color="white" stop-opacity="0.924242"/>
</linearGradient>
</defs>
</svg>
