<svg width="131" height="112" viewBox="0 0 131 112" fill="none" xmlns="http://www.w3.org/2000/svg">
<g opacity="0.86">
<path d="M62.1484 1.72775C56.0511 25.6373 49.9544 49.5293 43.8396 73.4383C31.8646 71.7708 19.8896 70.1032 7.89696 68.4351C5.77966 63.7432 3.66238 59.0512 1.56267 54.3597C14.2945 36.5936 27.0263 18.8274 39.7758 1.06177C47.2335 1.2779 54.6907 1.51162 62.1479 1.74534L62.1484 1.72775Z" fill="url(#paint0_linear_755_11474)"/>
<path d="M129.765 24.8352C109.839 53.3267 89.9137 81.8183 69.9704 110.309C61.2608 98.0138 52.5507 85.7359 43.8411 73.4403C49.9384 49.5308 56.0351 25.6388 62.15 1.72974" fill="url(#paint1_linear_755_11474)"/>
<path d="M7.91638 68.4361C28.601 82.3992 49.2856 96.3623 69.9707 110.308C61.2611 98.0122 52.551 85.7343 43.8414 73.4387C31.8664 71.7712 19.8914 70.1036 7.89878 68.4355L7.91638 68.4361Z" fill="url(#paint2_linear_755_11474)"/>
</g>
<defs>
<linearGradient id="paint0_linear_755_11474" x1="25.891" y1="71.1192" x2="36.0521" y2="-1.72375" gradientUnits="userSpaceOnUse">
<stop offset="0.02" stop-color="#E882FF"/>
<stop offset="1" stop-color="white" stop-opacity="0.1"/>
</linearGradient>
<linearGradient id="paint1_linear_755_11474" x1="155.669" y1="-10.8469" x2="5.79019" y2="630.163" gradientUnits="userSpaceOnUse">
<stop stop-color="#E057FF"/>
<stop offset="0.281352" stop-color="white"/>
</linearGradient>
<linearGradient id="paint2_linear_755_11474" x1="36.686" y1="105.837" x2="41.2304" y2="73.2591" gradientUnits="userSpaceOnUse">
<stop offset="0.02" stop-color="#E057FF"/>
<stop offset="1" stop-color="white" stop-opacity="0.1"/>
</linearGradient>
</defs>
</svg>
