<svg width="722" height="624" viewBox="0 0 722 624" fill="none" xmlns="http://www.w3.org/2000/svg">
<path style="mix-blend-mode:lighten" opacity="0.66" d="M439.676 540.024C387.626 536.792 386.51 498.449 276.99 456.537C195.082 425.188 167.122 435.709 131.831 406.681C70.478 356.21 85.8349 267.561 90.9704 244.626C113.658 143.267 224.791 38.6862 373.125 31.5492C386.175 30.9255 516.733 26.447 605.897 110.751C671.865 173.123 674.42 245.536 674.805 268.031C677.161 406.312 542.175 546.383 439.676 540.024Z" fill="url(#paint0_linear_640_1061)"/>
<path style="mix-blend-mode:lighten" opacity="0.66" d="M433.923 623.172C370.162 619.214 368.795 572.243 234.632 520.901C134.295 482.498 100.044 495.387 56.8121 459.826C-18.3458 398 0.466461 289.404 6.75747 261.309C34.5504 137.143 170.689 9.03133 352.399 0.28848C368.384 -0.47558 528.319 -5.96177 637.546 97.3115C718.356 173.717 721.486 262.424 721.958 289.98C724.845 459.376 559.485 630.963 433.923 623.172Z" fill="url(#paint1_linear_640_1061)"/>
<path d="M231.508 364.611L289.601 375.374C283.653 370.13 277.674 364.831 271.726 359.588C251.261 332.228 230.751 304.853 210.285 277.492C217.34 306.541 224.453 335.562 231.508 364.611Z" fill="url(#paint2_linear_640_1061)"/>
<path d="M289.601 375.373C302.977 353.33 316.34 331.328 329.716 309.284L308.596 277.137C275.8 277.232 243.036 277.383 210.24 277.478C230.706 304.839 251.216 332.213 271.681 359.574C277.629 364.817 283.608 370.116 289.556 375.36L289.601 375.373Z" fill="url(#paint3_linear_640_1061)"/>
<g opacity="0.86">
<path d="M492.212 301.12C470.524 339.102 448.846 377.054 427.129 415.027C407.423 406.587 387.717 398.148 367.981 389.7C366.567 380.699 365.153 371.698 363.768 362.706C393.916 338.313 424.065 313.92 454.243 289.536C466.902 293.388 479.553 297.269 492.203 301.15L492.212 301.12Z" fill="url(#paint4_linear_640_1061)"/>
<path d="M597.124 372.2C549.618 411.548 502.113 450.896 454.578 490.235C445.462 465.172 436.338 440.139 427.222 415.077C448.909 377.096 470.587 339.145 492.304 301.173" fill="url(#paint5_linear_640_1061)"/>
<path d="M368.066 389.656C396.896 423.169 425.726 456.683 454.565 490.167C445.447 465.096 436.319 440.054 427.201 414.982C407.489 406.54 387.777 398.098 368.036 389.646L368.066 389.656Z" fill="url(#paint6_linear_640_1061)"/>
</g>
<defs>
<linearGradient id="paint0_linear_640_1061" x1="182.177" y1="457.735" x2="515.611" y2="43.2154" gradientUnits="userSpaceOnUse">
<stop offset="0.43" stop-color="white" stop-opacity="0.1"/>
<stop offset="1" stop-color="white"/>
</linearGradient>
<linearGradient id="paint1_linear_640_1061" x1="118.486" y1="522.369" x2="526.945" y2="14.5797" gradientUnits="userSpaceOnUse">
<stop offset="0.43" stop-color="white" stop-opacity="0.1"/>
<stop offset="1" stop-color="white"/>
</linearGradient>
<linearGradient id="paint2_linear_640_1061" x1="254.316" y1="322.64" x2="221.644" y2="354.521" gradientUnits="userSpaceOnUse">
<stop offset="0.02" stop-color="white"/>
<stop offset="1" stop-color="white" stop-opacity="0.1"/>
</linearGradient>
<linearGradient id="paint3_linear_640_1061" x1="307.74" y1="276.275" x2="247.629" y2="334.905" gradientUnits="userSpaceOnUse">
<stop offset="0.02" stop-color="white"/>
<stop offset="1" stop-color="white" stop-opacity="0.1"/>
</linearGradient>
<linearGradient id="paint4_linear_640_1061" x1="397.508" y1="402.685" x2="448.843" y2="282.895" gradientUnits="userSpaceOnUse">
<stop offset="0.02" stop-color="white"/>
<stop offset="1" stop-color="white" stop-opacity="0.1"/>
</linearGradient>
<linearGradient id="paint5_linear_640_1061" x1="467.92" y1="496.282" x2="102.49" y2="1349.01" gradientUnits="userSpaceOnUse">
<stop offset="0.02" stop-color="white"/>
<stop offset="1" stop-color="white" stop-opacity="0.1"/>
</linearGradient>
<linearGradient id="paint6_linear_640_1061" x1="399.699" y1="466.983" x2="422.666" y2="413.391" gradientUnits="userSpaceOnUse">
<stop offset="0.02" stop-color="white"/>
<stop offset="1" stop-color="white" stop-opacity="0.1"/>
</linearGradient>
</defs>
</svg>
