<svg width="72" height="67" viewBox="0 0 72 67" fill="none" xmlns="http://www.w3.org/2000/svg">
<g opacity="0.86">
<path d="M25.8338 10.0331C27.0063 21.3612 28.1762 32.6815 29.341 44.0121C23.8885 45.1998 18.436 46.3874 12.9758 47.5776C11.3104 45.8831 9.6451 44.1886 7.98745 42.4916C10.6683 32.7662 13.3491 23.0408 16.0377 13.3129C19.3022 12.2171 22.5693 11.1289 25.8364 10.0408L25.8338 10.0331Z" fill="url(#paint0_linear_755_11494)"/>
<path d="M58.8053 9.25708C54.7193 24.7751 50.6332 40.2932 46.5395 55.8138C40.8062 51.8775 35.0756 47.9489 29.3423 44.0126C28.1698 32.6846 26.9999 21.3643 25.8351 10.0336" fill="url(#paint1_linear_755_11494)"/>
<path d="M12.9843 47.5751C24.17 50.3237 35.3558 53.0724 46.539 55.8134C40.8057 51.8771 35.0751 47.9485 29.3418 44.0122C23.8893 45.1998 18.4368 46.3874 12.9766 47.5776L12.9843 47.5751Z" fill="url(#paint2_linear_755_11494)"/>
</g>
<defs>
<linearGradient id="paint0_linear_755_11494" x1="21.1974" y1="45.8703" x2="13.9807" y2="12.7003" gradientUnits="userSpaceOnUse">
<stop offset="0.02" stop-color="#E882FF"/>
<stop offset="1" stop-color="white" stop-opacity="0.1"/>
</linearGradient>
<linearGradient id="paint1_linear_755_11494" x1="64.3339" y1="-10.3288" x2="101.653" y2="291.206" gradientUnits="userSpaceOnUse">
<stop stop-color="#E057FF"/>
<stop offset="0.281352" stop-color="white"/>
</linearGradient>
<linearGradient id="paint2_linear_755_11494" x1="31.4099" y1="59.1856" x2="28.1823" y2="44.3508" gradientUnits="userSpaceOnUse">
<stop offset="0.02" stop-color="#E057FF"/>
<stop offset="1" stop-color="white" stop-opacity="0.1"/>
</linearGradient>
</defs>
</svg>
